<svg id="Layer_1" data-name="Layer 1" xmlns="http://www.w3.org/2000/svg" viewBox="0 0 170.88 30.23"><defs><style>.cls-1{fill:#005893;}.cls-2{fill:#0bbbef;}</style></defs><title>Artboard 1</title><path class="cls-1" d="M116.11,22.26h15.42V18.84H121.37c1.4-5.61,10-6.83,10-13.06,0-3.33-2.28-5.78-7.1-5.78a16.92,16.92,0,0,0-7.36,1.75l1,3.16a12.41,12.41,0,0,1,5.69-1.49c1.76,0,3.42.79,3.42,2.8C127.06,10.78,117,11.13,116.11,22.26ZM132,16.82h9.9v5.44h3.94V16.82h3.33V13.49h-3.33V0h-2.89L132,14.2Zm4.47-3.15,5.61-7.54c0,.62-.18,2.55-.18,4.3v3.15h-2.63C138.45,13.58,137,13.67,136.44,13.67Z"/><path class="cls-2" d="M4.12,18.93V12H5.78a7.2,7.2,0,0,1,3.6.7,3,3,0,0,1,1.4,2.81c0,2.36-1.4,3.42-4.73,3.42Zm-4,3.33H6c6.57,0,8.94-2.9,8.94-6.93a5.82,5.82,0,0,0-3.16-5.6,12.38,12.38,0,0,0-6-1.14H4.12V3.33H13L14,.09H0V22.26Zm17.52,0h3.86l5-7.19c1-1.31,1.67-2.63,2.11-3.33h.08c-.08,1-.17,2.19-.17,3.42v7h3.94V6.4H28.57l-5,7.18c-.87,1.32-1.66,2.63-2.1,3.33h-.09c.09-1,.18-2.19.18-3.42v-7H17.61Zm21.56,0h4V9.73h4.73L49,6.4H34.35V9.73h4.82Zm11.22,8h3.94v-8a7.65,7.65,0,0,0,2.45.35c5,0,8.24-3.42,8.24-8.33C65,9.2,62,6,56.35,6a21.48,21.48,0,0,0-6.05,1V30.23Zm3.94-11.39V9.55a6.06,6.06,0,0,1,1.84-.26c2.89,0,4.73,1.57,4.73,5,0,3.07-1.49,5-4.47,5A5.67,5.67,0,0,1,54.33,18.84Zm13.06,3.42h3.85l5-7.19c1-1.31,1.66-2.63,2.1-3.33h.09c-.09,1-.18,2.19-.18,3.42v7h4V6.4H78.34l-5,7.18c-.88,1.32-1.67,2.63-2.11,3.33h-.09c.09-1,.18-2.19.18-3.42v-7H67.39Zm18,0h4V15.68h2.37c.44,0,.87.44,1.4,1.49l2,5.09h4.3l-2.89-6.05a3.33,3.33,0,0,0-1.84-1.93v-.09C96,13.41,96.22,11.13,97,10a1.29,1.29,0,0,1,1.13-.53,1.54,1.54,0,0,1,.88.18V6.22A5.37,5.37,0,0,0,97.36,6a3.24,3.24,0,0,0-2.9,1.4c-1.31,1.93-1.31,5.26-3.24,5.26H89.38V6.4h-4Zm23.05.35A9.71,9.71,0,0,0,113.83,21l-1.14-2.72A7.17,7.17,0,0,1,109,19.36c-2.72,0-4.47-1.75-4.47-5,0-2.89,1.75-5.17,4.73-5.17a6.33,6.33,0,0,1,3.86,1.23V7a8.59,8.59,0,0,0-12.71,7.45C100.42,19,103.23,22.61,108.4,22.61Z"/><path class="cls-1" d="M162.2,17.71A8.69,8.69,0,1,1,170.88,9,8.71,8.71,0,0,1,162.2,17.71Zm0-15.6A6.92,6.92,0,1,0,169.12,9,6.92,6.92,0,0,0,162.2,2.11Z"/><path class="cls-1" d="M167.11,9h-4.3V4.73h-1.13v5.44h5.43Z"/></svg>