<svg id="Layer_1" data-name="Layer 1" xmlns="http://www.w3.org/2000/svg" viewBox="0 0 219.1 32"><title>Artboard 1</title><path d="M76.11,26.13V28h-4.7V4.79l4.7,3.58v5.35c.89-1.41,2.54-2.26,5-2.26,4.18,0,7.57,3.58,7.57,8.46s-3.39,8.46-7.57,8.46C78.68,28.38,77,27.53,76.11,26.13Zm7.73-6.21c0-2.63-1.55-4.32-3.94-4.32s-3.85,1.69-3.85,4.32,1.45,4.33,3.85,4.33S83.84,22.55,83.84,19.92Z" fill="#231f20"/><path d="M91.11,19.92a8.79,8.79,0,1,1,8.78,8.46A8.45,8.45,0,0,1,91.11,19.92Zm12.73,0c0-2.58-1.5-4.46-4-4.46S96,17.34,96,19.92s1.5,4.49,4,4.49S103.84,22.51,103.84,19.92Z" fill="#231f20"/><path d="M110.8,15.79v-3.9h10.34v3.9h-3.76v6.53c0,1.65.52,2,1.37,2a2.35,2.35,0,0,0,1.4-.57L122,27.06a6.15,6.15,0,0,1-4,1.31c-3,0-5.26-1.5-5.26-6V15.79Z" fill="#231f20"/><path d="M123.5,19.92a8.79,8.79,0,1,1,8.78,8.46A8.45,8.45,0,0,1,123.5,19.92Zm12.73,0c0-2.58-1.5-4.46-3.95-4.46s-3.94,1.88-3.94,4.46,1.5,4.49,3.94,4.49S136.23,22.51,136.23,19.92Z" fill="#231f20"/><path d="M144.17,11.89h4.71v2.49a4.85,4.85,0,0,1,4.59-2.91,4.54,4.54,0,0,1,2.53.7l-1.5,4a4.16,4.16,0,0,0-2-.52c-2.25,0-3.61,1.37-3.61,4.7V28h-4.71Z" fill="#231f20"/><path d="M164.39,15.41a4.89,4.89,0,0,0-2.13.42,5,5,0,0,0-1.73,1.3l-2.87-2.63a9,9,0,0,1,3.16-2.31,8.89,8.89,0,0,1,3.84-.74c4.56,0,7.38,2.35,7.38,7.1V28h-4.7V26.5a5.56,5.56,0,0,1-2,1.45,5.64,5.64,0,0,1-2.47.43c-3.24,0-6-1.59-6-5.36,0-3.15,2.78-4.69,6.32-4.69h4.18A2.65,2.65,0,0,0,164.39,15.41Zm-1,6.13c-1.22,0-1.88.61-1.88,1.54s.61,1.55,2.17,1.55c2.11,0,3.66-1.15,3.66-2.44v-.65Z" fill="#231f20"/><path d="M175.67,11.89h4.7v1.83a5,5,0,0,1,4.51-2.26,4.8,4.8,0,0,1,2.7.66,4.72,4.72,0,0,1,1.86,2.07,6.63,6.63,0,0,1,5.83-2.73c3.71,0,6,2.63,6,6.68V28h-4.71V18.61c0-1.83-.6-2.92-2.58-2.92s-3.15,1.22-3.15,3.62v8.62h-4.7V18.61c0-1.83-.6-2.92-2.58-2.92s-3.15,1.22-3.15,3.62v8.62h-4.7Z" fill="#231f20"/><path d="M211.44,15.41a4.86,4.86,0,0,0-3.85,1.72l-2.87-2.63a8.91,8.91,0,0,1,7-3.05c4.56,0,7.38,2.35,7.38,7.1V28h-4.7V26.5A5.68,5.68,0,0,1,212.35,28a5.5,5.5,0,0,1-2.47.43c-3.23,0-6-1.59-6-5.36,0-3.15,2.77-4.69,6.32-4.69h4.17A2.65,2.65,0,0,0,211.44,15.41Zm-1,6.13c-1.21,0-1.88.61-1.88,1.54s.61,1.55,2.17,1.55c2.11,0,3.66-1.15,3.66-2.44v-.65Z" fill="#231f20"/><path d="M15.76,5a11,11,0,0,1,7.83,3.24l-7.83,7.83,7.83,7.82a11.07,11.07,0,0,1-14.85.73,10.87,10.87,0,0,1-3.2-4.32,11.06,11.06,0,0,1,1-10.38A11.07,11.07,0,0,1,15.76,5Zm0-4.69A15.76,15.76,0,1,0,26.9,27.19l3.32-3.32L26.9,20.55l-4.5-4.5,4.51-4.51,3.32-3.31L26.91,4.88A15.69,15.69,0,0,0,15.76.29Z" fill="#fbcf00"/><path d="M64.11,32l-8.5-6.48-6.15,4.69-7-5.3H34.8V15A14.65,14.65,0,0,1,49.45,0a14.77,14.77,0,0,1,5.68,1.14,14.66,14.66,0,0,1,9,13.81ZM39.49,20.22h4.59l5.37,4.09,6.16-4.69,3.81,2.9V15A10,10,0,0,0,45.58,5.52a9.91,9.91,0,0,0-3.26,2.23A9.93,9.93,0,0,0,39.48,15Z" fill="#7100fe"/></svg>