<svg id="Layer_1" data-name="Layer 1" xmlns="http://www.w3.org/2000/svg" xmlns:xlink="http://www.w3.org/1999/xlink" viewBox="0 0 40 243"><defs><style>.cls-1{fill:url(#linear-gradient);}.cls-2{fill:url(#linear-gradient-2);}.cls-3{fill:url(#linear-gradient-3);}.cls-4{fill:url(#linear-gradient-4);}.cls-5{fill:url(#linear-gradient-5);}.cls-6{fill:url(#linear-gradient-6);}.cls-7{fill:url(#linear-gradient-7);}.cls-8{fill:url(#linear-gradient-8);}.cls-9{fill:#fff;}</style><linearGradient id="linear-gradient" x1="5.37" y1="158.44" x2="45.09" y2="144.62" gradientTransform="matrix(1, 0, 0, -1, 0, 258)" gradientUnits="userSpaceOnUse"><stop offset="0" stop-color="#ff579e"/><stop offset="1" stop-color="#ff5959"/></linearGradient><linearGradient id="linear-gradient-2" x1="18.73" y1="196.87" x2="58.46" y2="183.05" xlink:href="#linear-gradient"/><linearGradient id="linear-gradient-3" x1="25.47" y1="216.22" x2="65.2" y2="202.4" xlink:href="#linear-gradient"/><linearGradient id="linear-gradient-4" x1="24.11" y1="212.32" x2="63.84" y2="198.49" xlink:href="#linear-gradient"/><linearGradient id="linear-gradient-5" x1="-20.37" y1="84.47" x2="19.36" y2="70.65" xlink:href="#linear-gradient"/><linearGradient id="linear-gradient-6" x1="-29.73" y1="57.56" x2="10" y2="43.74" xlink:href="#linear-gradient"/><linearGradient id="linear-gradient-7" x1="-8.38" y1="118.93" x2="31.35" y2="105.11" xlink:href="#linear-gradient"/><linearGradient id="linear-gradient-8" x1="0.14" y1="143.41" x2="39.86" y2="129.59" xlink:href="#linear-gradient"/></defs><title>contact-btn</title><polygon class="cls-1" points="20.27 103.04 19.11 106.04 21.42 106.04 20.27 103.04"/><path class="cls-2" d="M19.71,63.15h1.56v-3H19.71c-1,0-1.53.49-1.53,1.45A1.34,1.34,0,0,0,19.71,63.15Z"/><path class="cls-3" d="M21.45,39.81c0-.6-.33-.91-1-.91h-1.7v1.77h1.7C21.12,40.67,21.45,40.38,21.45,39.81Z"/><path class="cls-4" d="M21,43.33H18.76V45.2H21a.86.86,0,0,0,1-1C22,43.63,21.65,43.33,21,43.33Z"/><path class="cls-5" d="M21.27,186.19H19.71c-1,0-1.53.49-1.53,1.45a1.34,1.34,0,0,0,1.53,1.51h1.56Z"/><circle class="cls-6" cx="15" cy="216" r="3.29"/><path class="cls-7" d="M18.78,150.2h1.68a1.41,1.41,0,0,0,1-.38,1.45,1.45,0,0,0,.39-1.07c0-.79-.47-1.19-1.4-1.19H18.78Z"/><path class="cls-8" d="M30,0H10A10,10,0,0,0,0,10V233a10,10,0,0,0,10,10H30a10,10,0,0,0,10-10V10A10,10,0,0,0,30,0ZM15,17.84a5.9,5.9,0,0,1,2.38-2.21,7.08,7.08,0,0,1,3.4-.8,7.38,7.38,0,0,1,3.09.61,5.77,5.77,0,0,1,2.25,1.77l-2.53,2.26A3.26,3.26,0,0,0,21,18.08a2.66,2.66,0,0,0-2,.81,3,3,0,0,0-.76,2.16A3.06,3.06,0,0,0,19,23.23a2.69,2.69,0,0,0,2,.8,3.27,3.27,0,0,0,2.61-1.4l2.53,2.26a5.77,5.77,0,0,1-2.25,1.77,7.38,7.38,0,0,1-3.09.61,7.31,7.31,0,0,1-3.4-.78A6,6,0,0,1,15,24.28a6.16,6.16,0,0,1-.85-3.23A6.06,6.06,0,0,1,15,17.84Zm5.13,67.55H16.91V82.5h2.87a1.31,1.31,0,0,0,.76-.18.6.6,0,0,0,.28-.53.74.74,0,0,0-.48-.68,2.65,2.65,0,0,0-1.22-.24,6.38,6.38,0,0,0-1.55.21,7.08,7.08,0,0,0-1.58.57l-1.17-3a10.17,10.17,0,0,1,4.28-.9A9.37,9.37,0,0,1,22,78.2a5,5,0,0,1,2.1,1.24,2.56,2.56,0,0,1,.8,1.89,2.63,2.63,0,0,1-.41,1.45,3,3,0,0,1-1.13,1A3.26,3.26,0,0,1,24.79,85a2.85,2.85,0,0,1-.25,3.66,5,5,0,0,1-2.13,1.25,9.43,9.43,0,0,1-2.95.43,12.11,12.11,0,0,1-5-1l1.17-2.77a10.3,10.3,0,0,0,1.74.53,9.41,9.41,0,0,0,1.7.17,3.83,3.83,0,0,0,1.56-.27.87.87,0,0,0,.61-.8Q21.29,85.39,20.12,85.39Zm4.63-38.31a6,6,0,0,1-3.57.92H14.82V36.1h6a6,6,0,0,1,3.42.82,2.58,2.58,0,0,1,1.23,2.29,2.76,2.76,0,0,1-.41,1.5,3,3,0,0,1-1.12,1,3.28,3.28,0,0,1,1.53,1.07A2.79,2.79,0,0,1,26,44.55,3,3,0,0,1,24.75,47.08ZM14.8,59.26a4.35,4.35,0,0,1,1.92-1.6,7.07,7.07,0,0,1,2.92-.56h5.58V69H21.27V66.18H20.2L18.38,69h-4.2l2.35-3.4a4.14,4.14,0,0,1-1.79-1.53,4.53,4.53,0,0,1-.61-2.36A4.39,4.39,0,0,1,14.8,59.26ZM18.33,99.1h3.94L27.48,111H23.33l-.8-2.07H18l-.8,2.07H13.13Zm.7,71.13a2.69,2.69,0,0,0,2,.79,3.24,3.24,0,0,0,2.6-1.39l2.53,2.26A5.81,5.81,0,0,1,24,173.66a7.46,7.46,0,0,1-3.1.61,7.34,7.34,0,0,1-3.4-.78,6.11,6.11,0,0,1-2.38-2.21,6.25,6.25,0,0,1-.85-3.23,6.16,6.16,0,0,1,.85-3.21,6,6,0,0,1,2.38-2.21,7.11,7.11,0,0,1,3.4-.8,7.46,7.46,0,0,1,3.1.61,5.81,5.81,0,0,1,2.24,1.77l-2.53,2.26a3.24,3.24,0,0,0-2.6-1.39,2.67,2.67,0,0,0-2,.81,3,3,0,0,0-.76,2.16A3.06,3.06,0,0,0,19,170.23Zm1.17,22L18.38,195h-4.2l2.35-3.4a4.14,4.14,0,0,1-1.79-1.53,4.53,4.53,0,0,1-.61-2.36,4.2,4.2,0,0,1,2.59-4.05,7.07,7.07,0,0,1,2.92-.56h5.58V195H21.27v-2.82Zm1.05-47.42a5.23,5.23,0,0,1,3.43,1,3.55,3.55,0,0,1,1.21,2.92,3.91,3.91,0,0,1-1.38,3.22,5.91,5.91,0,0,1-3.77,1.1h-5.9V141.1h3.94v3.66Zm4.21-21.55H22V132H18v-8.79H14.54V120.1H25.46ZM15,210.71A5.29,5.29,0,1,1,9.71,216,5.3,5.3,0,0,1,15,210.71Zm16,9.22A39.93,39.93,0,0,1,18.93,232a7.58,7.58,0,0,1-9.39-1l-1.25-1.25a1,1,0,0,1,0-1.41,1,1,0,0,1,1.42,0L11,229.57a5.55,5.55,0,0,0,6.9.74,37.74,37.74,0,0,0,11.46-11.46,5.55,5.55,0,0,0-.74-6.9l-1.24-1.24a1,1,0,0,1,0-1.42,1,1,0,0,1,1.41,0L30,210.54A7.57,7.57,0,0,1,31,219.93Z"/><path class="cls-9" d="M15,221.29A5.29,5.29,0,1,0,9.71,216,5.29,5.29,0,0,0,15,221.29Zm0-8.58A3.29,3.29,0,1,1,11.71,216,3.3,3.3,0,0,1,15,212.71Z"/><path class="cls-9" d="M28.74,209.29a1,1,0,0,0-1.41,0,1,1,0,0,0,0,1.42L28.57,212a5.55,5.55,0,0,1,.74,6.9,37.74,37.74,0,0,1-11.46,11.46,5.55,5.55,0,0,1-6.9-.74l-1.24-1.24a1,1,0,0,0-1.42,0,1,1,0,0,0,0,1.41L9.54,231a7.58,7.58,0,0,0,9.39,1A39.93,39.93,0,0,0,31,219.93a7.57,7.57,0,0,0-1-9.39Z"/><path class="cls-9" d="M16.53,65.6,14.18,69h4.2l1.82-2.82h1.07V69h3.95V57.1H19.64a7.07,7.07,0,0,0-2.92.56,4.2,4.2,0,0,0-2.59,4.05,4.53,4.53,0,0,0,.61,2.36A4.14,4.14,0,0,0,16.53,65.6Zm3.18-5.41h1.56v3H19.71a1.34,1.34,0,0,1-1.53-1.51C18.18,60.68,18.69,60.19,19.71,60.19Z"/><path class="cls-9" d="M25.22,195V183.1H19.64a7.07,7.07,0,0,0-2.92.56,4.2,4.2,0,0,0-2.59,4.05,4.53,4.53,0,0,0,.61,2.36,4.14,4.14,0,0,0,1.79,1.53L14.18,195h4.2l1.82-2.82h1.07V195Zm-5.51-5.85a1.34,1.34,0,0,1-1.53-1.51c0-1,.51-1.45,1.53-1.45h1.56v3Z"/><path class="cls-9" d="M18,108.93h4.52l.8,2.07h4.15L22.27,99.1H18.33L13.13,111h4.08ZM20.27,103l1.15,3H19.11Z"/><path class="cls-9" d="M17.37,26.49a7.31,7.31,0,0,0,3.4.78,7.38,7.38,0,0,0,3.09-.61,5.77,5.77,0,0,0,2.25-1.77l-2.53-2.26A3.27,3.27,0,0,1,21,24a2.69,2.69,0,0,1-2-.8,3.06,3.06,0,0,1-.76-2.18A3,3,0,0,1,19,18.89a2.66,2.66,0,0,1,2-.81,3.26,3.26,0,0,1,2.61,1.39l2.53-2.26a5.77,5.77,0,0,0-2.25-1.77,7.38,7.38,0,0,0-3.09-.61,7.08,7.08,0,0,0-3.4.8A5.9,5.9,0,0,0,15,17.84a6.06,6.06,0,0,0-.85,3.21A6.16,6.16,0,0,0,15,24.28,6,6,0,0,0,17.37,26.49Z"/><path class="cls-9" d="M21.06,165.08a3.24,3.24,0,0,1,2.6,1.39l2.53-2.26A5.81,5.81,0,0,0,24,162.44a7.46,7.46,0,0,0-3.1-.61,7.11,7.11,0,0,0-3.4.8,6,6,0,0,0-2.38,2.21,6.16,6.16,0,0,0-.85,3.21,6.25,6.25,0,0,0,.85,3.23,6.11,6.11,0,0,0,2.38,2.21,7.34,7.34,0,0,0,3.4.78,7.46,7.46,0,0,0,3.1-.61,5.81,5.81,0,0,0,2.24-1.77l-2.53-2.26a3.24,3.24,0,0,1-2.6,1.39,2.69,2.69,0,0,1-2-.79,3.06,3.06,0,0,1-.76-2.18,3,3,0,0,1,.76-2.16A2.67,2.67,0,0,1,21.06,165.08Z"/><path class="cls-9" d="M14.84,141.1V153h5.9a5.91,5.91,0,0,0,3.77-1.1,3.91,3.91,0,0,0,1.38-3.22,3.55,3.55,0,0,0-1.21-2.92,5.23,5.23,0,0,0-3.43-1H18.78V141.1Zm5.62,6.46c.93,0,1.4.4,1.4,1.19a1.45,1.45,0,0,1-.39,1.07,1.41,1.41,0,0,1-1,.38H18.78v-2.64Z"/><path class="cls-9" d="M20.68,86.91a3.83,3.83,0,0,1-1.56.27,9.41,9.41,0,0,1-1.7-.17,10.3,10.3,0,0,1-1.74-.53l-1.17,2.77a12.11,12.11,0,0,0,5,1,9.43,9.43,0,0,0,2.95-.43,5,5,0,0,0,2.13-1.25A2.85,2.85,0,0,0,24.79,85a3.26,3.26,0,0,0-1.47-1.14,3,3,0,0,0,1.13-1,2.63,2.63,0,0,0,.41-1.45,2.56,2.56,0,0,0-.8-1.89A5,5,0,0,0,22,78.2a9.37,9.37,0,0,0-2.86-.42,10.17,10.17,0,0,0-4.28.9l1.17,3a7.08,7.08,0,0,1,1.58-.57,6.38,6.38,0,0,1,1.55-.21,2.65,2.65,0,0,1,1.22.24.74.74,0,0,1,.48.68.6.6,0,0,1-.28.53,1.31,1.31,0,0,1-.76.18H16.91v2.89h3.21q1.17,0,1.17.72A.87.87,0,0,1,20.68,86.91Z"/><path class="cls-9" d="M25.5,42.83A3.28,3.28,0,0,0,24,41.76a3,3,0,0,0,1.12-1,2.76,2.76,0,0,0,.41-1.5,2.58,2.58,0,0,0-1.23-2.29,6,6,0,0,0-3.42-.82h-6V48h6.36a6,6,0,0,0,3.57-.92A3,3,0,0,0,26,44.55,2.79,2.79,0,0,0,25.5,42.83ZM18.76,38.9h1.7c.66,0,1,.31,1,.91s-.33.86-1,.86h-1.7ZM21,45.2H18.76V43.33H21c.66,0,1,.3,1,.91A.86.86,0,0,1,21,45.2Z"/><polygon class="cls-9" points="14.54 123.21 18.03 123.21 18.03 132 21.97 132 21.97 123.21 25.46 123.21 25.46 120.1 14.54 120.1 14.54 123.21"/></svg>