<svg id="Layer_1" data-name="Layer 1" xmlns="http://www.w3.org/2000/svg" xmlns:xlink="http://www.w3.org/1999/xlink" viewBox="0 0 95 36"><defs><linearGradient id="linear-gradient" x1="-1.36" y1="23.16" x2="96.36" y2="12.84" gradientTransform="matrix(1, 0, 0, -1, 0, 36)" gradientUnits="userSpaceOnUse"><stop offset="0" stop-color="#ff579e"/><stop offset="1" stop-color="#ff5959"/></linearGradient><clipPath id="clip-path"><path d="M30.85,12.35a1.59,1.59,0,0,0,1-1.49c0-1.27-1.4-2-3-2a5.29,5.29,0,0,0-2.4.57l.49,1.26a3.93,3.93,0,0,1,1.88-.5c.79,0,1.41.3,1.41.87s-.38.75-1,.75H27.59V13H29.3c.73,0,1.21.26,1.21.79s-.75,1-1.67,1a4.15,4.15,0,0,1-2.1-.57l-.5,1.16a5.65,5.65,0,0,0,2.79.73c1.68,0,3.12-.76,3.12-2.08A1.77,1.77,0,0,0,30.85,12.35ZM39,16h1.7L37.56,9H36l-3.12,7H34.5l.62-1.5h3.25Zm-3.35-2.73,1.11-2.68,1.11,2.68ZM46.35,16h1.84l-2.36-3.62L48.12,9H46.41l-1.84,2.83H43.41V9H41.8v7h1.61V13.18h1.12Zm8,0h1.7L52.94,9h-1.6l-3.12,7h1.66l.62-1.5h3.25ZM51,13.27l1.11-2.68,1.11,2.68Zm10.16-.92a1.59,1.59,0,0,0,1-1.49c0-1.27-1.4-2-3-2a5.29,5.29,0,0,0-2.4.57l.49,1.26a3.93,3.93,0,0,1,1.88-.5c.79,0,1.41.3,1.41.87s-.38.75-1,.75H57.92V13h1.71c.73,0,1.21.26,1.21.79s-.75,1-1.67,1a4.15,4.15,0,0,1-2.1-.57l-.5,1.16a5.65,5.65,0,0,0,2.79.73c1.68,0,3.12-.76,3.12-2.08A1.77,1.77,0,0,0,61.18,12.35ZM69.32,16H71L67.89,9h-1.6l-3.12,7h1.66l.62-1.5H68.7ZM66,13.27l1.11-2.68,1.11,2.68ZM77.15,9H71.08v1.32h2.23V16h1.6V10.32h2.24Zm4.61,2.3H80V9H78.37v7h3.16c1.8,0,2.88-.83,2.88-2.44S83.45,11.3,81.76,11.3Zm-.32,3.5H80V12.5h1.46c.84,0,1.34.32,1.34,1.09S82.27,14.8,81.44,14.8ZM30.18,28.12a3.6,3.6,0,0,0,2.89-1.25l-1-1a2.23,2.23,0,0,1-1.76.83,2.24,2.24,0,1,1,0-4.48,2.25,2.25,0,0,1,1.76.82l1-1a3.61,3.61,0,0,0-2.88-1.24,3.62,3.62,0,1,0,0,7.24Zm5.76-1.42V25.08h3.25V23.82H35.94V22.3h3.68V21H34.33v7h5.42V26.7Zm8.54-6.15c1.31,0,1.93-.55,1.94-1.53H45.31c0,.48-.3.73-.83.73s-.82-.25-.83-.73H42.54C42.55,20,43.15,20.55,44.48,20.55ZM41.25,28h1.53l3.34-4.55V28h1.6V21H46.2l-3.34,4.56V21H41.25Zm12.37-7v3.15a3.73,3.73,0,0,1-1.5.31A1.32,1.32,0,0,1,50.62,23V21H49v2.19c0,1.69,1,2.62,2.91,2.62a5,5,0,0,0,1.69-.33V28h1.6V21Zm8.9,7h1.7l-3.13-7h-1.6l-3.12,7H58l.62-1.5H61.9Zm-3.35-2.73,1.11-2.68,1.11,2.68Zm9.39,2.85a3.6,3.6,0,0,0,2.89-1.25l-1-1a2.23,2.23,0,0,1-1.76.83,2.24,2.24,0,0,1,0-4.48,2.25,2.25,0,0,1,1.76.82l1-1a3.73,3.73,0,1,0-2.89,6Z" fill="none"/></clipPath><clipPath id="clip-path-2"><path d="M10.82,11.5l6.5,6.5-6.5,6.5L9.29,23l5-5-5-5Z" fill="none"/></clipPath></defs><title>Artboard 1</title><path d="M85,36H10A10,10,0,0,1,0,26V10A10,10,0,0,1,10,0H85A10,10,0,0,1,95,10V26A10,10,0,0,1,85,36ZM10,2a8,8,0,0,0-8,8V26a8,8,0,0,0,8,8H85a8,8,0,0,0,8-8V10a8,8,0,0,0-8-8Z" fill="url(#linear-gradient)"/><g clip-path="url(#clip-path)"><polygon points="65.48 20.88 64.77 26.41 64.77 20.88 65.48 20.88" fill="#ff5870"/><polygon points="66.38 20.88 65.45 28.12 64.77 28.12 64.77 26.41 65.48 20.88 66.38 20.88" fill="#ff586f"/><polygon points="67.27 20.88 66.36 28.12 65.45 28.12 66.38 20.88 67.27 20.88" fill="#ff586e"/><polygon points="68.17 20.88 67.25 28.12 66.36 28.12 67.27 20.88 68.17 20.88" fill="#ff586d"/><polygon points="69.07 20.88 68.15 28.12 67.25 28.12 68.17 20.88 69.07 20.88" fill="#ff586c"/><polygon points="69.97 20.88 69.05 28.12 68.15 28.12 69.07 20.88 69.97 20.88" fill="#ff586b"/><polygon points="70.87 20.88 69.95 28.12 69.05 28.12 69.97 20.88 70.87 20.88" fill="#ff596a"/><polygon points="71.45 23.38 70.85 28.12 69.95 28.12 70.87 20.88 71.45 20.88 71.45 23.38" fill="#ff5969"/><polygon points="70.85 28.12 71.45 23.38 71.45 28.12 70.85 28.12" fill="#ff5968"/><polygon points="59.86 22.59 59.52 25.27 59.17 25.27 59.17 22.59 59.86 22.59" fill="#ff5876"/><polygon points="60.76 22.59 60.42 25.27 59.52 25.27 59.86 22.59 60.76 22.59" fill="#ff5875"/><polygon points="61.39 24.71 61.32 25.27 60.42 25.27 60.76 22.59 61.39 22.59 61.39 24.71" fill="#ff5874"/><polygon points="61.32 25.27 61.39 24.71 61.39 25.27 61.32 25.27" fill="#ff5873"/><polygon points="56.47 21 56.37 21.75 56.37 21 56.47 21" fill="#ff587a"/><polygon points="57.37 21 56.48 28 56.37 28 56.37 21.75 56.47 21 57.37 21" fill="#ff5879"/><polygon points="58.27 21 57.38 28 56.48 28 57.37 21 58.27 21" fill="#ff5878"/><polygon points="59.17 21 58.28 28 57.38 28 58.27 21 59.17 21" fill="#ff5877"/><polygon points="60.06 21 59.18 28 58.28 28 59.17 21 60.06 21" fill="#ff5876"/><polygon points="60.96 21 60.08 28 59.18 28 60.06 21 60.96 21" fill="#ff5875"/><polygon points="61.86 21 60.97 28 60.08 28 60.96 21 61.86 21" fill="#ff5874"/><polygon points="62.76 21 61.87 28 60.97 28 61.86 21 62.76 21" fill="#ff5873"/><polygon points="63.66 21 62.77 28 61.87 28 62.76 21 63.66 21" fill="#ff5872"/><polygon points="64.22 23.67 63.67 28 62.77 28 63.66 21 64.22 21 64.22 23.67" fill="#ff5871"/><polygon points="63.67 28 64.22 23.67 64.22 28 63.67 28" fill="#ff5870"/><polygon points="49.27 21 49.02 22.98 49.02 21 49.27 21" fill="#ff5883"/><polygon points="50.17 21 49.28 28 49.02 28 49.02 22.98 49.27 21 50.17 21" fill="#ff5882"/><polygon points="51.07 21 50.18 28 49.28 28 50.17 21 51.07 21" fill="#ff5881"/><polygon points="51.97 21 51.08 28 50.18 28 51.07 21 51.97 21" fill="#ff5880"/><polygon points="52.87 21 51.98 28 51.08 28 51.97 21 52.87 21" fill="#ff587f"/><polygon points="53.77 21 52.88 28 51.98 28 52.87 21 53.77 21" fill="#ff587e"/><polygon points="54.67 21 53.78 28 52.88 28 53.77 21 54.67 21" fill="#ff587d"/><polygon points="55.22 23.73 54.68 28 53.78 28 54.67 21 55.22 21 55.22 23.73" fill="#ff587c"/><polygon points="54.68 28 55.22 23.73 55.22 28 54.68 28" fill="#ff587a"/><polygon points="42.08 21 41.25 27.5 41.25 21 42.08 21" fill="#ff588b"/><polygon points="42.98 21 42.09 28 41.25 28 41.25 27.5 42.08 21 42.98 21" fill="#ff588a"/><polygon points="43.88 21 42.99 28 42.09 28 42.98 21 43.88 21" fill="#ff5889"/><polygon points="44.78 21 43.89 28 42.99 28 43.88 21 44.78 21" fill="#ff5888"/><polygon points="45.68 21 44.79 28 43.89 28 44.78 21 45.68 21" fill="#ff5887"/><polygon points="46.58 21 45.69 28 44.79 28 45.68 21 46.58 21" fill="#ff5886"/><polygon points="47.48 21 46.59 28 45.69 28 46.58 21 47.48 21" fill="#ff5885"/><polygon points="47.72 26.12 47.49 28 46.59 28 47.48 21 47.72 21 47.72 26.12" fill="#ff5884"/><polygon points="47.49 28 47.72 26.12 47.72 28 47.49 28" fill="#ff5883"/><polygon points="43.23 19.02 43.04 20.55 42.54 20.55 42.54 19.02 43.23 19.02" fill="#ff588a"/><polygon points="44.13 19.02 43.94 20.55 43.04 20.55 43.23 19.02 44.13 19.02" fill="#ff5889"/><polygon points="45.03 19.02 44.84 20.55 43.94 20.55 44.13 19.02 45.03 19.02" fill="#ff5888"/><polygon points="45.93 19.02 45.73 20.55 44.84 20.55 45.03 19.02 45.93 19.02" fill="#ff5887"/><polygon points="45.73 20.55 45.93 19.02 46.42 19.02 46.42 20.55 45.73 20.55" fill="#ff5886"/><polygon points="34.89 21 34.33 25.41 34.33 21 34.89 21" fill="#ff5793"/><polygon points="35.78 21 34.9 28 34.33 28 34.33 25.41 34.89 21 35.78 21" fill="#ff5792"/><polygon points="36.69 21 35.8 28 34.9 28 35.78 21 36.69 21" fill="#ff5791"/><polygon points="37.58 21 36.7 28 35.8 28 36.69 21 37.58 21" fill="#ff5790"/><polygon points="38.48 21 37.59 28 36.7 28 37.58 21 38.48 21" fill="#ff578f"/><polygon points="39.38 21 38.49 28 37.59 28 38.48 21 39.38 21" fill="#ff578e"/><polygon points="39.75 25.22 39.39 28 38.49 28 39.38 21 39.75 21 39.75 25.22" fill="#ff588d"/><polygon points="39.39 28 39.75 25.22 39.75 28 39.39 28" fill="#ff588c"/><polygon points="26.81 20.88 26.39 24.17 26.39 20.88 26.81 20.88" fill="#ff579c"/><polygon points="27.71 20.88 26.79 28.12 26.39 28.12 26.39 24.17 26.81 20.88 27.71 20.88" fill="#ff579b"/><polygon points="28.61 20.88 27.69 28.12 26.79 28.12 27.71 20.88 28.61 20.88" fill="#ff579a"/><polygon points="29.51 20.88 28.59 28.12 27.69 28.12 28.61 20.88 29.51 20.88" fill="#ff5799"/><polygon points="30.41 20.88 29.49 28.12 28.59 28.12 29.51 20.88 30.41 20.88" fill="#ff5798"/><polygon points="31.3 20.88 30.39 28.12 29.49 28.12 30.41 20.88 31.3 20.88" fill="#ff5797"/><polygon points="32.2 20.88 31.28 28.12 30.39 28.12 31.3 20.88 32.2 20.88" fill="#ff5796"/><polygon points="33.07 21.14 32.18 28.12 31.28 28.12 32.2 20.88 33.07 20.88 33.07 21.14" fill="#ff5795"/><polygon points="32.18 28.12 33.07 21.14 33.07 28.12 32.18 28.12" fill="#ff5794"/><polygon points="80.03 12.5 79.98 12.9 79.98 12.5 80.03 12.5" fill="#ff5961"/><polygon points="80.93 12.5 80.64 14.8 79.98 14.8 79.98 12.9 80.03 12.5 80.93 12.5" fill="#ff5960"/><polygon points="81.83 12.5 81.53 14.8 80.64 14.8 80.93 12.5 81.83 12.5" fill="#ff595f"/><polygon points="82.73 12.5 82.43 14.8 81.53 14.8 81.83 12.5 82.73 12.5" fill="#ff595e"/><polygon points="82.43 14.8 82.73 12.5 82.78 12.5 82.78 14.8 82.43 14.8" fill="#ff595d"/><polygon points="78.67 9 78.37 11.41 78.37 9 78.67 9" fill="#ff5963"/><polygon points="79.57 9 78.69 16 78.37 16 78.37 11.41 78.67 9 79.57 9" fill="#ff5962"/><polygon points="80.47 9 79.58 16 78.69 16 79.57 9 80.47 9" fill="#ff5961"/><polygon points="81.37 9 80.48 16 79.58 16 80.47 9 81.37 9" fill="#ff5960"/><polygon points="82.27 9 81.38 16 80.48 16 81.37 9 82.27 9" fill="#ff595f"/><polygon points="83.17 9 82.28 16 81.38 16 82.27 9 83.17 9" fill="#ff595e"/><polygon points="84.07 9 83.18 16 82.28 16 83.17 9 84.07 9" fill="#ff595d"/><polygon points="84.41 13.42 84.08 16 83.18 16 84.07 9 84.41 9 84.41 13.42" fill="#ff595c"/><polygon points="84.08 16 84.41 13.42 84.41 16 84.08 16" fill="#ff595b"/><polygon points="71.48 9 71.08 12.15 71.08 9 71.48 9" fill="#ff586b"/><polygon points="72.38 9 71.49 16 71.08 16 71.08 12.15 71.48 9 72.38 9" fill="#ff596a"/><polygon points="73.28 9 72.39 16 71.49 16 72.38 9 73.28 9" fill="#ff5969"/><polygon points="74.18 9 73.29 16 72.39 16 73.28 9 74.18 9" fill="#ff5968"/><polygon points="75.08 9 74.19 16 73.29 16 74.18 9 75.08 9" fill="#ff5967"/><polygon points="75.98 9 75.09 16 74.19 16 75.08 9 75.98 9" fill="#ff5966"/><polygon points="76.88 9 75.99 16 75.09 16 75.98 9 76.88 9" fill="#ff5965"/><polygon points="77.15 13.92 76.89 16 75.99 16 76.88 9 77.15 9 77.15 13.92" fill="#ff5964"/><polygon points="76.89 16 77.15 13.92 77.15 16 76.89 16" fill="#ff5963"/><polygon points="66.78 10.59 66.44 13.27 65.97 13.27 65.97 10.59 66.78 10.59" fill="#ff5870"/><polygon points="67.68 10.59 67.34 13.27 66.44 13.27 66.78 10.59 67.68 10.59" fill="#ff586f"/><polygon points="67.34 13.27 67.68 10.59 68.19 10.59 68.19 13.27 67.34 13.27" fill="#ff586e"/><polygon points="63.39 9 63.17 10.68 63.17 9 63.39 9" fill="#ff5874"/><polygon points="64.29 9 63.4 16 63.17 16 63.17 10.68 63.39 9 64.29 9" fill="#ff5873"/><polygon points="65.19 9 64.3 16 63.4 16 64.29 9 65.19 9" fill="#ff5872"/><polygon points="66.08 9 65.2 16 64.3 16 65.19 9 66.08 9" fill="#ff5871"/><polygon points="66.98 9 66.09 16 65.2 16 66.08 9 66.98 9" fill="#ff5870"/><polygon points="67.88 9 66.99 16 66.09 16 66.98 9 67.88 9" fill="#ff586f"/><polygon points="68.78 9 67.89 16 66.99 16 67.88 9 68.78 9" fill="#ff586e"/><polygon points="69.68 9 68.79 16 67.89 16 68.78 9 69.68 9" fill="#ff586d"/><polygon points="70.58 9 69.69 16 68.79 16 69.68 9 70.58 9" fill="#ff586c"/><polygon points="71.02 12.6 70.59 16 69.69 16 70.58 9 71.02 9 71.02 12.6" fill="#ff586b"/><polygon points="70.59 16 71.02 12.6 71.02 16 70.59 16" fill="#ff596a"/><polygon points="57.11 8.85 56.57 13.11 56.57 8.85 57.11 8.85" fill="#ff587c"/><polygon points="58.01 8.85 57.09 16.12 56.57 16.12 56.57 13.11 57.11 8.85 58.01 8.85" fill="#ff587a"/><polygon points="58.91 8.85 57.99 16.12 57.09 16.12 58.01 8.85 58.91 8.85" fill="#ff5879"/><polygon points="59.81 8.85 58.89 16.12 57.99 16.12 58.91 8.85 59.81 8.85" fill="#ff5878"/><polygon points="60.71 8.85 59.78 16.12 58.89 16.12 59.81 8.85 60.71 8.85" fill="#ff5877"/><polygon points="61.61 8.85 60.69 16.12 59.78 16.12 60.71 8.85 61.61 8.85" fill="#ff5876"/><polygon points="62.48 9.05 61.58 16.12 60.69 16.12 61.61 8.85 62.48 8.85 62.48 9.05" fill="#ff5875"/><polygon points="61.58 16.12 62.48 9.05 62.48 16.12 61.58 16.12" fill="#ff5874"/><polygon points="51.49 10.59 51.16 13.27 51.02 13.27 51.02 10.59 51.49 10.59" fill="#ff5882"/><polygon points="52.39 10.59 52.05 13.27 51.16 13.27 51.49 10.59 52.39 10.59" fill="#ff5881"/><polygon points="53.24 10.99 52.95 13.27 52.05 13.27 52.39 10.59 53.24 10.59 53.24 10.99" fill="#ff5880"/><polygon points="52.95 13.27 53.24 10.99 53.24 13.27 52.95 13.27" fill="#ff587f"/><polygon points="49 9 48.22 15.11 48.22 9 49 9" fill="#ff5885"/><polygon points="49.9 9 49.01 16 48.22 16 48.22 15.11 49 9 49.9 9" fill="#ff5884"/><polygon points="50.8 9 49.91 16 49.01 16 49.9 9 50.8 9" fill="#ff5883"/><polygon points="51.7 9 50.81 16 49.91 16 50.8 9 51.7 9" fill="#ff5882"/><polygon points="52.6 9 51.71 16 50.81 16 51.7 9 52.6 9" fill="#ff5881"/><polygon points="53.49 9 52.61 16 51.71 16 52.6 9 53.49 9" fill="#ff5880"/><polygon points="54.4 9 53.51 16 52.61 16 53.49 9 54.4 9" fill="#ff587f"/><polygon points="55.29 9 54.41 16 53.51 16 54.4 9 55.29 9" fill="#ff587e"/><polygon points="56.07 9.95 55.3 16 54.41 16 55.29 9 56.07 9 56.07 9.95" fill="#ff587d"/><polygon points="55.3 16 56.07 9.95 56.07 16 55.3 16" fill="#ff587c"/><polygon points="41.8 9 41.8 9.04 41.8 9 41.8 9" fill="#ff588d"/><polygon points="42.7 9 41.82 16 41.8 16 41.8 9.04 41.8 9 42.7 9" fill="#ff588c"/><polygon points="43.6 9 42.72 16 41.82 16 42.7 9 43.6 9" fill="#ff588b"/><polygon points="44.5 9 43.61 16 42.72 16 43.6 9 44.5 9" fill="#ff588a"/><polygon points="45.4 9 44.51 16 43.61 16 44.5 9 45.4 9" fill="#ff5889"/><polygon points="46.3 9 45.41 16 44.51 16 45.4 9 46.3 9" fill="#ff5888"/><polygon points="47.2 9 46.31 16 45.41 16 46.3 9 47.2 9" fill="#ff5887"/><polygon points="48.1 9 47.21 16 46.31 16 47.2 9 48.1 9" fill="#ff5886"/><polygon points="48.19 15.37 48.11 16 47.21 16 48.1 9 48.19 9 48.19 15.37" fill="#ff5885"/><polygon points="48.11 16 48.19 15.37 48.19 16 48.11 16" fill="#ff5884"/><polygon points="36.21 10.59 35.87 13.27 35.64 13.27 35.64 10.59 36.21 10.59" fill="#ff5793"/><polygon points="37.11 10.59 36.77 13.27 35.87 13.27 36.21 10.59 37.11 10.59" fill="#ff5792"/><polygon points="37.86 11.72 37.67 13.27 36.77 13.27 37.11 10.59 37.86 10.59 37.86 11.72" fill="#ff5791"/><polygon points="37.67 13.27 37.86 11.72 37.86 13.27 37.67 13.27" fill="#ff5790"/><polygon points="33.71 9 32.84 15.85 32.84 9 33.71 9" fill="#ff5796"/><polygon points="34.61 9 33.72 16 32.84 16 32.84 15.85 33.71 9 34.61 9" fill="#ff5795"/><polygon points="35.51 9 34.62 16 33.72 16 34.61 9 35.51 9" fill="#ff5794"/><polygon points="36.41 9 35.52 16 34.62 16 35.51 9 36.41 9" fill="#ff5793"/><polygon points="37.31 9 36.42 16 35.52 16 36.41 9 37.31 9" fill="#ff5792"/><polygon points="38.21 9 37.32 16 36.42 16 37.31 9 38.21 9" fill="#ff5791"/><polygon points="39.11 9 38.22 16 37.32 16 38.21 9 39.11 9" fill="#ff5790"/><polygon points="40.01 9 39.12 16 38.22 16 39.11 9 40.01 9" fill="#ff578f"/><polygon points="40.69 10.68 40.02 16 39.12 16 40.01 9 40.69 9 40.69 10.68" fill="#ff578e"/><polygon points="40.02 16 40.69 10.68 40.69 16 40.02 16" fill="#ff588d"/><polygon points="26.54 8.85 26.24 11.19 26.24 8.85 26.54 8.85" fill="#ff579e"/><polygon points="27.44 8.85 26.51 16.12 26.24 16.12 26.24 11.19 26.54 8.85 27.44 8.85" fill="#ff579d"/><polygon points="28.34 8.85 27.41 16.12 26.51 16.12 27.44 8.85 28.34 8.85" fill="#ff579c"/><polygon points="29.23 8.85 28.31 16.12 27.41 16.12 28.34 8.85 29.23 8.85" fill="#ff579b"/><polygon points="30.13 8.85 29.21 16.12 28.31 16.12 29.23 8.85 30.13 8.85" fill="#ff579a"/><polygon points="31.03 8.85 30.11 16.12 29.21 16.12 30.13 8.85 31.03 8.85" fill="#ff5799"/><polygon points="31.93 8.85 31.01 16.12 30.11 16.12 31.03 8.85 31.93 8.85" fill="#ff5798"/><polygon points="32.15 14.22 31.91 16.12 31.01 16.12 31.93 8.85 32.15 8.85 32.15 14.22" fill="#ff5797"/><polygon points="31.91 16.12 32.15 14.22 32.15 16.12 31.91 16.12" fill="#ff5796"/></g><g clip-path="url(#clip-path-2)"><polygon points="9.57 11.5 9.29 16.89 9.29 11.5 9.57 11.5" fill="#ff5886"/><polygon points="9.97 11.5 9.3 24.5 9.29 24.5 9.29 16.89 9.57 11.5 9.97 11.5" fill="#ff5885"/><polygon points="10.36 11.5 9.69 24.5 9.3 24.5 9.97 11.5 10.36 11.5" fill="#ff5884"/><polygon points="10.76 11.5 10.09 24.5 9.69 24.5 10.36 11.5 10.76 11.5" fill="#ff5883"/><polygon points="11.16 11.5 10.48 24.5 10.09 24.5 10.76 11.5 11.16 11.5" fill="#ff5882"/><polygon points="11.55 11.5 10.88 24.5 10.48 24.5 11.16 11.5 11.55 11.5" fill="#ff5881"/><polygon points="11.95 11.5 11.28 24.5 10.88 24.5 11.55 11.5 11.95 11.5" fill="#ff5880"/><polygon points="12.35 11.5 11.67 24.5 11.28 24.5 11.95 11.5 12.35 11.5" fill="#ff587f"/><polygon points="12.74 11.5 12.07 24.5 11.67 24.5 12.35 11.5 12.74 11.5" fill="#ff587e"/><polygon points="13.14 11.5 12.47 24.5 12.07 24.5 12.74 11.5 13.14 11.5" fill="#ff587d"/><polygon points="13.53 11.5 12.86 24.5 12.47 24.5 13.14 11.5 13.53 11.5" fill="#ff587c"/><polygon points="13.93 11.5 13.26 24.5 12.86 24.5 13.53 11.5 13.93 11.5" fill="#ff587a"/><polygon points="14.33 11.5 13.65 24.5 13.26 24.5 13.93 11.5 14.33 11.5" fill="#ff5879"/><polygon points="14.72 11.5 14.05 24.5 13.65 24.5 14.33 11.5 14.72 11.5" fill="#ff5878"/><polygon points="15.12 11.5 14.45 24.5 14.05 24.5 14.72 11.5 15.12 11.5" fill="#ff5877"/><polygon points="15.52 11.5 14.84 24.5 14.45 24.5 15.12 11.5 15.52 11.5" fill="#ff5876"/><polygon points="15.91 11.5 15.24 24.5 14.84 24.5 15.52 11.5 15.91 11.5" fill="#ff5875"/><polygon points="16.31 11.5 15.64 24.5 15.24 24.5 15.91 11.5 16.31 11.5" fill="#ff5874"/><polygon points="16.7 11.5 16.03 24.5 15.64 24.5 16.31 11.5 16.7 11.5" fill="#ff5873"/><polygon points="17.1 11.5 16.43 24.5 16.03 24.5 16.7 11.5 17.1 11.5" fill="#ff5872"/><polygon points="17.32 14.99 16.82 24.5 16.43 24.5 17.1 11.5 17.32 11.5 17.32 14.99" fill="#ff5871"/><polygon points="17.32 22.66 17.22 24.5 16.82 24.5 17.32 14.99 17.32 22.66" fill="#ff5870"/><polygon points="17.22 24.5 17.32 22.66 17.32 24.5 17.22 24.5" fill="#ff586f"/></g></svg>