<svg id="Layer_1" data-name="Layer 1" xmlns="http://www.w3.org/2000/svg" viewBox="0 0 205 32.85"><title>Artboard 1</title><path d="M96.14,14.61h-3.2V20h3.2A2.6,2.6,0,0,0,99,17.3,2.6,2.6,0,0,0,96.14,14.61Z" fill="none"/><path d="M139,19.31a2.87,2.87,0,0,0-2.14-.76,3.43,3.43,0,0,0-3.33,2.82l0,.14h6.4V21.4a2.94,2.94,0,0,0-.23-1.14A3,3,0,0,0,139,19.31Z" fill="none"/><polygon points="15.46 14.95 23.77 28.8 23.77 28.81 15.46 14.95 15.46 14.95" fill="none"/><path d="M164.28,18.9a3.59,3.59,0,0,0-3.6,3.84,3.62,3.62,0,0,0,3.6,3.86c2.1,0,3.52-1.56,3.52-3.84A3.53,3.53,0,0,0,164.28,18.9Z" fill="none"/><path d="M184.71,20.08a3.68,3.68,0,0,0-1.19-.84,3.49,3.49,0,0,0-1.42-.31,3.6,3.6,0,0,0-3.6,3.83,3.57,3.57,0,0,0,1,2.68,3.76,3.76,0,0,0,1.19.83,3.53,3.53,0,0,0,1.43.27,3.47,3.47,0,0,0,1.42-.29,3.6,3.6,0,0,0,1.95-2.05,3.54,3.54,0,0,0,.23-1.44,3.71,3.71,0,0,0-.22-1.44A3.64,3.64,0,0,0,184.71,20.08Z" fill="none"/><path d="M31.15,16c.26.07.52.13.79.18h0l6.36-8.07-3.59-4.5L26,14.69Z" fill="#fff"/><path d="M38.39,16l5.17-1.32L38.32,8.14h0L32,16.2A14.54,14.54,0,0,0,38.39,16Z" fill="#3bb3c4"/><path d="M4.47,12.16l10,15.69a6.81,6.81,0,0,1,9,.75,1.5,1.5,0,0,0,.24.2L15.46,15Z" fill="#fff"/><path d="M65,12.16,39,18.77a16.81,16.81,0,0,1-8.51,0L15.49,15h0l8.31,13.86a5.12,5.12,0,0,0,1,.7,4.18,4.18,0,0,0,5-.91,6.88,6.88,0,0,1,10,0,4.3,4.3,0,0,0,6.31,0,7.51,7.51,0,0,1,3.52-2l2.58-4.32a1.35,1.35,0,0,1,.35-.4,1.3,1.3,0,0,1,.49-.23,1.35,1.35,0,0,1,.53,0,1.28,1.28,0,0,1,.5.2,1.42,1.42,0,0,1,.6.89,1.46,1.46,0,0,1-.17,1.06l-1.73,2.9h0A7.06,7.06,0,0,1,55,27.79Z" fill="#3bb3c4"/><path d="M68.09,26.48h0a9,9,0,0,0-5.71,2.14,4.28,4.28,0,0,1-5.12.86l12-18.76a1.47,1.47,0,0,0,0-1.61,1.35,1.35,0,0,0-1.43-.56L46.51,14,35.79.51a1.4,1.4,0,0,0-.46-.38,1.36,1.36,0,0,0-1.16,0,1.3,1.3,0,0,0-.46.38L23,14,1.73,8.55a1.32,1.32,0,0,0-.81.06,1.32,1.32,0,0,0-.62.5,1.47,1.47,0,0,0,0,1.61l12,18.81a4.25,4.25,0,0,1-5-.91,9,9,0,0,0-5.79-2.14H1.39a1.43,1.43,0,0,0-1,.43,1.45,1.45,0,0,0-.4,1,1.42,1.42,0,0,0,1.43,1.4,6.51,6.51,0,0,1,4,1.39,6.85,6.85,0,0,0,10,0,4.3,4.3,0,0,1,6.3,0,6.89,6.89,0,0,0,10,0,4.3,4.3,0,0,1,6.3,0,6.89,6.89,0,0,0,10,0,4.27,4.27,0,0,1,6.31,0,6.87,6.87,0,0,0,10,0,6.65,6.65,0,0,1,3.91-1.39,1.43,1.43,0,0,0,1.42-1.42,1.42,1.42,0,0,0-.42-1A1.38,1.38,0,0,0,68.09,26.48Zm-15.33.24,1.73-2.9a1.46,1.46,0,0,0,.17-1.06,1.42,1.42,0,0,0-.6-.89,1.28,1.28,0,0,0-.5-.2,1.35,1.35,0,0,0-.53,0,1.3,1.3,0,0,0-.49.23,1.35,1.35,0,0,0-.35.4l-2.58,4.32a7.51,7.51,0,0,0-3.52,2,4.3,4.3,0,0,1-6.31,0,6.88,6.88,0,0,0-10,0,4.18,4.18,0,0,1-5,.91,5.12,5.12,0,0,1-1-.7h0a1.5,1.5,0,0,1-.24-.2,6.81,6.81,0,0,0-9-.75l-10-15.69,11,2.79h0l15,3.81a16.81,16.81,0,0,0,8.51,0l26-6.61L55,27.79a7.06,7.06,0,0,0-2.27-1.07ZM38.32,8.13h0l5.24,6.56L38.39,16A14.54,14.54,0,0,1,32,16.2h0c-.27-.05-.53-.11-.79-.18L26,14.69,34.73,3.63Z" fill="#0f2b3d"/><path d="M99.65,22.21l.11-.06a5.54,5.54,0,0,0,2.75-4.89c0-3.39-2.55-5.68-6.34-5.68H91.26a1.77,1.77,0,0,0-.68.11,1.88,1.88,0,0,0-.58.38,1.77,1.77,0,0,0-.38.58,1.58,1.58,0,0,0-.12.68V28a1.72,1.72,0,0,0,1.72,1.73A1.74,1.74,0,0,0,93,28V23h3.31l4.06,5.79a1.87,1.87,0,0,0,.65.66,1.76,1.76,0,0,0,.89.25,1.61,1.61,0,0,0,1.14-.45,1.65,1.65,0,0,0,.49-1.13,2.47,2.47,0,0,0-.5-1.33ZM96.14,20h-3.2v-5.4h3.2A2.6,2.6,0,0,1,99,17.3,2.6,2.6,0,0,1,96.14,20Z" fill="#0f2b3d"/><path d="M110.36,16.3a1.68,1.68,0,0,0-.56-.38,1.49,1.49,0,0,0-.66-.12,1.77,1.77,0,0,0-.68.11,1.75,1.75,0,0,0-.95.95,1.77,1.77,0,0,0-.11.68V28a1.65,1.65,0,0,0,.13.66,1.93,1.93,0,0,0,.37.57,1.76,1.76,0,0,0,.56.37,1.69,1.69,0,0,0,.66.13,1.65,1.65,0,0,0,.66-.13,1.76,1.76,0,0,0,.56-.37,2,2,0,0,0,.38-.57,1.85,1.85,0,0,0,.13-.66V17.54a1.73,1.73,0,0,0-.12-.67A1.52,1.52,0,0,0,110.36,16.3Z" fill="#0f2b3d"/><path d="M126.36,15.8a1.55,1.55,0,0,0-.92.24,1.63,1.63,0,0,0-.62.73l-3.72,7.77-3.75-7.77a1.7,1.7,0,0,0-.61-.72,1.57,1.57,0,0,0-.9-.25,1.69,1.69,0,0,0-1.68,1.66,1.91,1.91,0,0,0,.28.93l5.07,10.26a1.81,1.81,0,0,0,.63.79,1.73,1.73,0,0,0,1,.3,1.76,1.76,0,0,0,1.59-1.08l5.07-10.26a2.27,2.27,0,0,0,.26-.93,1.73,1.73,0,0,0-.49-1.18A1.66,1.66,0,0,0,126.36,15.8Z" fill="#0f2b3d"/><path d="M141.4,17.55a6,6,0,0,0-4.5-1.75,6.71,6.71,0,0,0-4.93,2,6.93,6.93,0,0,0-1.49,2.28,7.11,7.11,0,0,0,6.8,9.65,7.5,7.5,0,0,0,4.22-1.22,1.51,1.51,0,0,0,.63-.57,1.54,1.54,0,0,0,.25-.81,1.61,1.61,0,0,0-.1-.53,1.54,1.54,0,0,0-.3-.45,1.56,1.56,0,0,0-.46-.29,1.16,1.16,0,0,0-.53-.09,1.4,1.4,0,0,0-.72.23,5.33,5.33,0,0,1-2.87.81,3.67,3.67,0,0,1-3.9-2.76l0-.15h7.83a1.65,1.65,0,0,0,.73-.08,1.86,1.86,0,0,0,.62-.37,1.92,1.92,0,0,0,.42-.6,1.77,1.77,0,0,0,.13-.72v-.08a6.19,6.19,0,0,0-.42-2.44A6.09,6.09,0,0,0,141.4,17.55Zm-1.54,4h-6.4l0-.14a3.43,3.43,0,0,1,3.33-2.82,2.87,2.87,0,0,1,2.14.76,3,3,0,0,1,.67,1,2.94,2.94,0,0,1,.23,1.14Z" fill="#0f2b3d"/><path d="M154.87,16.35a1.58,1.58,0,0,0-.52-.33,1.46,1.46,0,0,0-.62-.08,4.11,4.11,0,0,0-1.76.39,4.23,4.23,0,0,0-1.45,1.1l-.17.2v-.27a1.7,1.7,0,0,0-.52-1.12,1.62,1.62,0,0,0-1.14-.44,1.49,1.49,0,0,0-.66.12,1.73,1.73,0,0,0-.57.38,1.62,1.62,0,0,0-.36.57,1.56,1.56,0,0,0-.12.67V28a1.58,1.58,0,0,0,.12.68,1.6,1.6,0,0,0,.37.58,1.81,1.81,0,0,0,.57.39,1.78,1.78,0,0,0,.68.12,1.69,1.69,0,0,0,.67-.12,1.61,1.61,0,0,0,.57-.39,1.85,1.85,0,0,0,.37-.58,1.76,1.76,0,0,0,.1-.68v-5.2a3.31,3.31,0,0,1,3.27-3.61,1.69,1.69,0,0,0,.62-.14,1.35,1.35,0,0,0,.52-.36,1.58,1.58,0,0,0,.35-.53,1.53,1.53,0,0,0,.11-.63,1.46,1.46,0,0,0-.09-.62A1.61,1.61,0,0,0,154.87,16.35Z" fill="#0f2b3d"/><path d="M170.71,9.31a1.79,1.79,0,0,0-.56-.38,1.54,1.54,0,0,0-.67-.13,1.78,1.78,0,0,0-.68.12,1.81,1.81,0,0,0-.57.39,1.6,1.6,0,0,0-.37.58,1.55,1.55,0,0,0-.12.68v7l-.2-.22a5.43,5.43,0,0,0-1.81-1.21,5.22,5.22,0,0,0-2.14-.36c-3.72,0-6.42,2.93-6.42,7s2.7,7,6.42,7a5,5,0,0,0,2.2-.39,5.12,5.12,0,0,0,1.83-1.29l.19-.22v.29a1.72,1.72,0,0,0,2.35,1.49,1.64,1.64,0,0,0,.55-.38,1.93,1.93,0,0,0,.37-.57,1.73,1.73,0,0,0,.1-.67V10.57a1.75,1.75,0,0,0-.47-1.26ZM164.28,26.6a3.62,3.62,0,0,1-3.6-3.86,3.59,3.59,0,0,1,3.6-3.84,3.53,3.53,0,0,1,3.52,3.86C167.8,25,166.38,26.6,164.28,26.6Z" fill="#0f2b3d"/><path d="M187.12,17.76a6.9,6.9,0,0,0-5-2,6.93,6.93,0,0,0-6.26,4.43,7,7,0,0,0-.31,4,6.94,6.94,0,0,0,1.95,3.5,6.91,6.91,0,0,0,10.6-1.16,6.94,6.94,0,0,0-1-8.82Zm-1.65,6.44a3.6,3.6,0,0,1-1.95,2.05,3.47,3.47,0,0,1-1.42.29,3.53,3.53,0,0,1-1.43-.27,3.76,3.76,0,0,1-1.19-.83,3.57,3.57,0,0,1-1-2.68,3.6,3.6,0,0,1,3.6-3.83,3.49,3.49,0,0,1,1.42.31,3.68,3.68,0,0,1,1.19.84,3.64,3.64,0,0,1,.77,1.24,3.71,3.71,0,0,1,.22,1.44A3.54,3.54,0,0,1,185.47,24.2Z" fill="#0f2b3d"/><path d="M203.48,24.63a1.41,1.41,0,0,0-.64.13,1.3,1.3,0,0,0-.52.41,4,4,0,0,1-1.31,1,3.88,3.88,0,0,1-1.61.38,3.58,3.58,0,0,1-3.65-3.84,3.42,3.42,0,0,1,.22-1.45,3.6,3.6,0,0,1,2-2.08,3.52,3.52,0,0,1,1.44-.28,3.66,3.66,0,0,1,1.62.37,3.74,3.74,0,0,1,1.3,1,1.27,1.27,0,0,0,.51.41,1.47,1.47,0,0,0,.65.12A1.54,1.54,0,0,0,205,19.34a1.69,1.69,0,0,0-.31-.92,6.43,6.43,0,0,0-2.36-2,6.33,6.33,0,0,0-3-.65,7,7,0,0,0,0,13.93A6.22,6.22,0,0,0,204.71,27a1.35,1.35,0,0,0,.28-.87,1.54,1.54,0,0,0-.44-1.07A1.56,1.56,0,0,0,203.48,24.63Z" fill="#0f2b3d"/></svg>