<svg id="Layer_1" data-name="Layer 1" xmlns="http://www.w3.org/2000/svg" viewBox="0 0 65.52 26.05"><title>Artboard 1</title><path d="M44.45,2.94a3,3,0,0,1,.84-2.1A3.1,3.1,0,0,1,47.46,0a2.85,2.85,0,0,1,2.1.84,3,3,0,0,1,.84,2.1,2.77,2.77,0,0,1-.84,2,2.73,2.73,0,0,1-2.1.91A3,3,0,0,1,45.29,5,2.77,2.77,0,0,1,44.45,2.94Zm-25.2,0A2.73,2.73,0,0,1,18.34,5a2.77,2.77,0,0,1-2,.84,5.55,5.55,0,0,1-1.47-.21,16.66,16.66,0,0,1-1.75-.42L3.57,2.52V0l9.87,2.31a3.36,3.36,0,0,1,1-1.68A2.87,2.87,0,0,1,16.31,0a2.87,2.87,0,0,1,2.94,2.94ZM0,14.71a52.55,52.55,0,0,0,15,5.95,78.4,78.4,0,0,0,17.78,1.89,78.4,78.4,0,0,0,17.78-1.89,52.55,52.55,0,0,0,15-5.95V18A48.42,48.42,0,0,1,50.82,24a74.29,74.29,0,0,1-18.06,2.1A74.29,74.29,0,0,1,14.7,24,50.6,50.6,0,0,1,0,18Z" fill="#567e7e"/></svg>