<svg width="130" height="38" viewBox="0 0 130 38" fill="none" xmlns="http://www.w3.org/2000/svg">
<path d="M129.527 15.2692C128.872 12.5133 127.257 10.0888 124.978 8.44096C122.757 6.8583 120.098 6.0263 117.382 6.06371H105.486V8.0869H108.985L108.485 32.3652H115.632C117.192 32.3641 118.749 32.2117 120.28 31.91C121.972 31.6437 123.579 30.9859 124.978 29.9879C126.247 29.0913 127.322 27.9429 128.139 26.6125C128.955 25.2821 129.495 23.7976 129.727 22.2492C129.776 21.8446 130.426 18.2028 129.527 15.2692ZM127.927 21.0859C127.427 24.7782 126.028 26.7508 124.229 28.1671C123.529 28.7234 120.43 30.342 115.282 30.342H110.984V8.0869H117.481C119.905 8.04603 122.275 8.80999 124.229 10.2618C125.171 10.946 125.969 11.8123 126.578 12.8107C127.187 13.8091 127.595 14.9198 127.777 16.0785C128.427 19.2144 127.927 21.0859 127.927 21.0859Z" fill="#3AB2B4"/>
<path d="M83.6954 5.05273C76.3984 5.05273 70.4508 11.1729 70.4508 18.7093C70.4508 26.2456 76.3984 32.3658 83.6954 32.3658C90.9925 32.3658 96.9401 26.2456 96.9401 18.7093C96.9401 11.1729 90.9925 5.05273 83.6954 5.05273ZM83.6954 30.3426C80.6807 30.3062 77.8034 29.0608 75.6951 26.8798C73.5868 24.6987 72.4197 21.7602 72.45 18.7093C72.4171 17.1937 72.6836 15.6868 73.234 14.2769C73.7843 12.867 74.6074 11.5826 75.6549 10.499C76.7024 9.41537 77.9532 8.55441 79.334 7.96661C80.7147 7.37882 82.1975 7.07604 83.6954 7.07604C85.1934 7.07604 86.6762 7.37882 88.0569 7.96661C89.4377 8.55441 90.6885 9.41537 91.736 10.499C92.7835 11.5826 93.6065 12.867 94.1569 14.2769C94.7072 15.6868 94.9738 17.1937 94.9409 18.7093C94.9712 21.7602 93.8041 24.6987 91.6958 26.8798C89.5874 29.0608 86.7102 30.3062 83.6954 30.3426Z" fill="#3AB2B4"/>
<path d="M46.6597 7.98709V6.2168H51.5577L60.1542 29.0283L67.9011 7.98709H64.8023V6.2168H73.1989V7.98709H69.6504L60.8539 32.3665H59.0546L50.0083 7.98709H46.6597Z" fill="#3AB2B4"/>
<path d="M102.22 5.75195V32.3647H100.083V5.75195H102.22Z" fill="#3AB2B4"/>
<path d="M0 0.5V19.033H1.12127V1.62127L35.8807 1.78146V36.3807L18.4049 36.3007V37.4219L37.002 37.502V0.660182L0 0.5Z" fill="url(#paint0_linear)"/>
<path d="M8.80981 10.9123V9.63086H12.3338L18.5809 25.9694L24.1873 10.9123H21.9447V9.63086H28.0316V10.9123H25.4687L19.0615 28.3721H17.78L11.2125 10.9123H8.80981Z" fill="url(#paint1_linear)"/>
<defs>
<linearGradient id="paint0_linear" x1="18.501" y1="0.497501" x2="18.501" y2="37.5045" gradientUnits="userSpaceOnUse">
<stop stop-color="#2FEA9C"/>
<stop offset="0.9883" stop-color="#33B8B6"/>
</linearGradient>
<linearGradient id="paint1_linear" x1="18.4207" y1="9.63086" x2="18.4207" y2="28.3721" gradientUnits="userSpaceOnUse">
<stop stop-color="#2FEA9C"/>
<stop offset="0.9883" stop-color="#33B8B6"/>
</linearGradient>
</defs>
</svg>
