<svg id="Layer_1" data-name="Layer 1" xmlns="http://www.w3.org/2000/svg" viewBox="0 0 26.28 16.35"><title>Artboard 1</title><path d="M23.73,2.31H17.14V.68h6.59V2.31ZM12.76,9a4.38,4.38,0,0,1,.64,2.39A4.81,4.81,0,0,1,12.67,14a4.44,4.44,0,0,1-3,2.11,11.9,11.9,0,0,1-2.31.22H0V0H7.89c2,0,3.4.61,4.24,1.74a4.21,4.21,0,0,1,.75,2.5,3.65,3.65,0,0,1-.76,2.4,3.65,3.65,0,0,1-1.24.93A3.66,3.66,0,0,1,12.76,9Zm-9-2.57H7.23A3.38,3.38,0,0,0,9,6a1.55,1.55,0,0,0,.53-.63,1.6,1.6,0,0,0,.13-.81,1.42,1.42,0,0,0-.19-.9,1.52,1.52,0,0,0-.69-.61,6.24,6.24,0,0,0-1.93-.25h-3ZM10,11.18a1.73,1.73,0,0,0-.24-1,1.68,1.68,0,0,0-.8-.71,4.12,4.12,0,0,0-1.63-.28H3.77v4.36H7.22a3.76,3.76,0,0,0,1.66-.29,2.06,2.06,0,0,0,1.07-2ZM26.17,8.52a16.45,16.45,0,0,1,.1,2.33H17.74A2.82,2.82,0,0,0,19,13.32a3.21,3.21,0,0,0,1.69.44A2.53,2.53,0,0,0,22,13.45a2.36,2.36,0,0,0,.95-1h3.13A3.79,3.79,0,0,1,25,14.53a5.66,5.66,0,0,1-4.4,1.71,6.42,6.42,0,0,1-4.13-1.44c-1.18-1-1.78-2.53-1.78-4.69a6.36,6.36,0,0,1,1.61-4.67A5.73,5.73,0,0,1,18.2,4.19a5.63,5.63,0,0,1,2.26-.37,6.47,6.47,0,0,1,2.75.55,4.65,4.65,0,0,1,2,1.73A5.75,5.75,0,0,1,26.17,8.52Zm-3.08.31a2.48,2.48,0,0,0-.22-1,2.4,2.4,0,0,0-.6-.84,2.66,2.66,0,0,0-1.81-.64,2.34,2.34,0,0,0-1,.15,2.41,2.41,0,0,0-.85.52,3.16,3.16,0,0,0-.81,1.82Z"/></svg>