<svg id="Layer_1" data-name="Layer 1" xmlns="http://www.w3.org/2000/svg" viewBox="0 0 27 20"><defs><style>.cls-1{fill:none;}</style></defs><title>Artboard 1</title><path class="cls-1" d="M21.5,11a3.8,3.8,0,0,0-.59.06l1.29,2.71-1.43.68-1.32-2.77A3.46,3.46,0,0,0,18,14.5,3.5,3.5,0,1,0,21.5,11Z"/><path class="cls-1" d="M4.8,13.77l1.29-2.71A3.8,3.8,0,0,0,5.5,11,3.5,3.5,0,1,0,9,14.5a3.46,3.46,0,0,0-1.45-2.82L6.23,14.45Z"/><path d="M21.5,9A5.57,5.57,0,0,0,20,9.21L18.93,6.9V5.45h.62a2.73,2.73,0,0,0,0-5.45H18.14V1.58h1.41a1.14,1.14,0,1,1,0,2.28h-2.2V6.29H9.65V4.12h2.63V2.54h-6V4.12H8.07V6.9L7,9.21A5.57,5.57,0,0,0,5.5,9a5.52,5.52,0,1,0,2.92.85l.94-2h8.28l.94,2A5.49,5.49,0,1,0,21.5,9ZM9,14.5A3.5,3.5,0,1,1,5.5,11a3.8,3.8,0,0,1,.59.06L4.8,13.77l1.43.68,1.32-2.77A3.46,3.46,0,0,1,9,14.5ZM21.5,18A3.5,3.5,0,0,1,18,14.5a3.46,3.46,0,0,1,1.45-2.82l1.32,2.77,1.43-.68-1.29-2.71A3.8,3.8,0,0,1,21.5,11a3.5,3.5,0,0,1,0,7Z"/></svg>