<svg id="Layer_1" data-name="Layer 1" xmlns="http://www.w3.org/2000/svg" viewBox="0 0 32 14.79"><title>Artboard 1</title><path d="M.48,6.75c.05-.54.1-1.15.2-1.68.06-.37.21-.86.72-.86h.27s0,0,0-.07A5.25,5.25,0,0,1,3.28,2.54c.2-.16.44-.35.54-.45A1,1,0,0,1,4,1.3a.61.61,0,0,1,.5-.22h.18A8.13,8.13,0,0,0,5.77.9,41.48,41.48,0,0,1,13.6,0c5.63-.11,10.06,4,10.24,4.13l.13.12a15.69,15.69,0,0,0,3.19.81c3.17.63,3.77,1.64,3.89,2a2,2,0,0,1,.73,1.17,1.38,1.38,0,0,0,.17.59l.05.07v3c-.17.8-1,1.21-2.37,1.21a6.57,6.57,0,0,1-.76,0h-.48a2.41,2.41,0,0,0,.08-.25,2.44,2.44,0,0,0,.06-.26,3.18,3.18,0,0,0,.06-.62,3.32,3.32,0,1,0-6.64,0,3.73,3.73,0,0,0,0,.48,2,2,0,0,0,.05.26l.06.26L8.58,12.67a2.34,2.34,0,0,0,0-.26,2.11,2.11,0,0,0,0-.25,1.09,1.09,0,0,0,0-.18A3.32,3.32,0,0,0,2,11.9V12c0,.06,0,.13,0,.19a2.48,2.48,0,0,0,0,.27,2.25,2.25,0,0,1-1.71-1.2,3.92,3.92,0,0,1-.08-3A5.42,5.42,0,0,0,.48,6.75Z"/><path d="M27.84,13.1a2.81,2.81,0,0,1-5.2-.11,2.58,2.58,0,0,1-.08-.26,1.1,1.1,0,0,1-.06-.26,2.63,2.63,0,0,1-.05-.49,2.81,2.81,0,1,1,5.62,0,2.48,2.48,0,0,1-.07.61,1.82,1.82,0,0,1-.07.25A2.67,2.67,0,0,1,27.84,13.1Z"/><path d="M8.06,12.65a2.81,2.81,0,0,1-5.49-.16,2.3,2.3,0,0,1,0-.26,2.11,2.11,0,0,1,0-.25h0a2.81,2.81,0,0,1,5.62,0v.17l0,.25A1.84,1.84,0,0,1,8.06,12.65Z"/></svg>