<svg id="Layer_1" data-name="Layer 1" xmlns="http://www.w3.org/2000/svg" viewBox="0 0 19.97 19.97"><title>Artboard 1</title><path d="M10.5,5v5.25L15,12.89l-.75,1.27L9,11V5ZM4.31,15.66A7.85,7.85,0,0,0,10,18a7.68,7.68,0,0,0,5.63-2.34A7.79,7.79,0,0,0,18,10a7.61,7.61,0,0,0-2.39-5.62A7.61,7.61,0,0,0,10,2,7.78,7.78,0,0,0,4.31,4.36,7.67,7.67,0,0,0,2,10,7.86,7.86,0,0,0,4.31,15.66ZM2.91,3A9.62,9.62,0,0,1,10,0a9.52,9.52,0,0,1,7,3A9.53,9.53,0,0,1,20,10,9.69,9.69,0,0,1,17,17.06,9.6,9.6,0,0,1,10,20a9.69,9.69,0,0,1-7.07-2.91A9.73,9.73,0,0,1,0,10,9.57,9.57,0,0,1,2.91,3Z"/></svg>