
<svg id="Layer_1" data-name="Layer 1" xmlns="http://www.w3.org/2000/svg" xmlns:xlink="http://www.w3.org/1999/xlink" viewBox="0 0 40 243"><defs><linearGradient id="button-gradient" x1="5.37" y1="158.44" x2="45.09" y2="144.62" gradientTransform="matrix(1 0 0 -1 0 258)" gradientUnits="userSpaceOnUse"><stop offset="0" stop-color="#ff579e"/><stop offset="1" stop-color="#ff5959"/></linearGradient><linearGradient id="button-gradient-2" x1="18.73" y1="196.87" x2="58.46" y2="183.05" xlink:href="#button-gradient"/><linearGradient id="button-gradient-3" x1="25.47" y1="216.22" x2="65.2" y2="202.4" xlink:href="#button-gradient"/><linearGradient id="button-gradient-4" x1="24.11" y1="212.32" x2="63.84" y2="198.49" xlink:href="#button-gradient"/><linearGradient id="button-gradient-5" x1="-20.37" y1="84.47" x2="19.36" y2="70.65" xlink:href="#button-gradient"/><linearGradient id="button-gradient-6" x1="-29.73" y1="57.56" x2="10" y2="43.74" xlink:href="#button-gradient"/><linearGradient id="button-gradient-7" x1="-8.38" y1="118.93" x2="31.35" y2="105.11" xlink:href="#button-gradient"/><linearGradient id="button-gradient-8" x1=".14" y1="143.41" x2="39.86" y2="129.59" xlink:href="#button-gradient"/><style>.cls-9{fill:#fff}</style></defs><path fill="url(#button-gradient)" d="M20.27 103.04l-1.16 3h2.31l-1.15-3z"/><path d="M19.71 63.15h1.56v-3h-1.56c-1 0-1.53.49-1.53 1.45a1.34 1.34 0 001.53 1.55z" fill="url(#button-gradient-2)"/><path d="M21.45 39.81c0-.6-.33-.91-1-.91h-1.7v1.77h1.7c.67 0 1-.29 1-.86z" fill="url(#button-gradient-3)"/><path d="M21 43.33h-2.24v1.87H21a.86.86 0 001-1c0-.57-.35-.87-1-.87z" fill="url(#button-gradient-4)"/><path d="M21.27 186.19h-1.56c-1 0-1.53.49-1.53 1.45a1.34 1.34 0 001.53 1.51h1.56z" fill="url(#button-gradient-5)"/><circle cx="15" cy="216" r="3.29" fill="url(#button-gradient-6)"/><path d="M18.78 150.2h1.68a1.41 1.41 0 001-.38 1.45 1.45 0 00.39-1.07c0-.79-.47-1.19-1.4-1.19h-1.67z" fill="url(#button-gradient-7)"/><path d="M30 0H10A10 10 0 000 10v223a10 10 0 0010 10h20a10 10 0 0010-10V10A10 10 0 0030 0zM15 17.84a5.9 5.9 0 012.38-2.21 7.08 7.08 0 013.4-.8 7.38 7.38 0 013.09.61 5.77 5.77 0 012.25 1.77l-2.53 2.26A3.26 3.26 0 0021 18.08a2.66 2.66 0 00-2 .81 3 3 0 00-.76 2.16 3.06 3.06 0 00.76 2.18 2.69 2.69 0 002 .8 3.27 3.27 0 002.61-1.4l2.53 2.26a5.77 5.77 0 01-2.25 1.77 7.38 7.38 0 01-3.09.61 7.31 7.31 0 01-3.4-.78 6 6 0 01-2.4-2.21 6.16 6.16 0 01-.85-3.23 6.06 6.06 0 01.85-3.21zm5.13 67.55h-3.22V82.5h2.87a1.31 1.31 0 00.76-.18.6.6 0 00.28-.53.74.74 0 00-.48-.68 2.65 2.65 0 00-1.22-.24 6.38 6.38 0 00-1.55.21 7.08 7.08 0 00-1.58.57l-1.17-3a10.17 10.17 0 014.28-.9 9.37 9.37 0 012.9.45 5 5 0 012.1 1.24 2.56 2.56 0 01.8 1.89 2.63 2.63 0 01-.41 1.45 3 3 0 01-1.13 1A3.26 3.26 0 0124.79 85a2.85 2.85 0 01-.25 3.66 5 5 0 01-2.13 1.25 9.43 9.43 0 01-2.95.43 12.11 12.11 0 01-5-1l1.17-2.77a10.3 10.3 0 001.74.53 9.41 9.41 0 001.7.17 3.83 3.83 0 001.56-.27.87.87 0 00.61-.8q.05-.81-1.12-.81zm4.63-38.31a6 6 0 01-3.57.92h-6.37V36.1h6a6 6 0 013.42.82 2.58 2.58 0 011.23 2.29 2.76 2.76 0 01-.41 1.5 3 3 0 01-1.12 1 3.28 3.28 0 011.53 1.07 2.79 2.79 0 01.53 1.77 3 3 0 01-1.25 2.53zM14.8 59.26a4.35 4.35 0 011.92-1.6 7.07 7.07 0 012.92-.56h5.58V69h-3.95v-2.82H20.2L18.38 69h-4.2l2.35-3.4a4.14 4.14 0 01-1.79-1.53 4.53 4.53 0 01-.61-2.36 4.39 4.39 0 01.67-2.45zm3.53 39.84h3.94l5.21 11.9h-4.15l-.8-2.07H18l-.8 2.07h-4.07zm.7 71.13a2.69 2.69 0 002 .79 3.24 3.24 0 002.6-1.39l2.53 2.26a5.81 5.81 0 01-2.16 1.77 7.46 7.46 0 01-3.1.61 7.34 7.34 0 01-3.4-.78 6.11 6.11 0 01-2.38-2.21 6.25 6.25 0 01-.85-3.23 6.16 6.16 0 01.85-3.21 6 6 0 012.38-2.21 7.11 7.11 0 013.4-.8 7.46 7.46 0 013.1.61 5.81 5.81 0 012.24 1.77l-2.53 2.26a3.24 3.24 0 00-2.6-1.39 2.67 2.67 0 00-2 .81 3 3 0 00-.76 2.16 3.06 3.06 0 00.65 2.18zm1.17 22L18.38 195h-4.2l2.35-3.4a4.14 4.14 0 01-1.79-1.53 4.53 4.53 0 01-.61-2.36 4.2 4.2 0 012.59-4.05 7.07 7.07 0 012.92-.56h5.58V195h-3.95v-2.82zm1.05-47.42a5.23 5.23 0 013.43 1 3.55 3.55 0 011.21 2.92 3.91 3.91 0 01-1.38 3.22 5.91 5.91 0 01-3.77 1.1h-5.9V141.1h3.94v3.66zm4.21-21.55H22V132h-4v-8.79h-3.46v-3.11h10.92zM15 210.71A5.29 5.29 0 119.71 216a5.3 5.3 0 015.29-5.29zm16 9.22A39.93 39.93 0 0118.93 232a7.58 7.58 0 01-9.39-1l-1.25-1.25a1 1 0 010-1.41 1 1 0 011.42 0l1.29 1.23a5.55 5.55 0 006.9.74 37.74 37.74 0 0011.46-11.46 5.55 5.55 0 00-.74-6.9l-1.24-1.24a1 1 0 010-1.42 1 1 0 011.41 0l1.21 1.25a7.57 7.57 0 011 9.39z" fill="url(#button-gradient-8)"/><path class="cls-9" d="M15 221.29A5.29 5.29 0 109.71 216a5.29 5.29 0 005.29 5.29zm0-8.58a3.29 3.29 0 11-3.29 3.29 3.3 3.3 0 013.29-3.29z"/><path class="cls-9" d="M28.74 209.29a1 1 0 00-1.41 0 1 1 0 000 1.42l1.24 1.29a5.55 5.55 0 01.74 6.9 37.74 37.74 0 01-11.46 11.46 5.55 5.55 0 01-6.9-.74l-1.24-1.24a1 1 0 00-1.42 0 1 1 0 000 1.41L9.54 231a7.58 7.58 0 009.39 1A39.93 39.93 0 0031 219.93a7.57 7.57 0 00-1-9.39zM16.53 65.6L14.18 69h4.2l1.82-2.82h1.07V69h3.95V57.1h-5.58a7.07 7.07 0 00-2.92.56 4.2 4.2 0 00-2.59 4.05 4.53 4.53 0 00.61 2.36 4.14 4.14 0 001.79 1.53zm3.18-5.41h1.56v3h-1.56a1.34 1.34 0 01-1.53-1.51c0-1 .51-1.49 1.53-1.49zM25.22 195v-11.9h-5.58a7.07 7.07 0 00-2.92.56 4.2 4.2 0 00-2.59 4.05 4.53 4.53 0 00.61 2.36 4.14 4.14 0 001.79 1.53l-2.35 3.4h4.2l1.82-2.82h1.07V195zm-5.51-5.85a1.34 1.34 0 01-1.53-1.51c0-1 .51-1.45 1.53-1.45h1.56v3zM18 108.93h4.52l.8 2.07h4.15l-5.2-11.9h-3.94l-5.2 11.9h4.08zm2.27-5.93l1.15 3h-2.31zM17.37 26.49a7.31 7.31 0 003.4.78 7.38 7.38 0 003.09-.61 5.77 5.77 0 002.25-1.77l-2.53-2.26A3.27 3.27 0 0121 24a2.69 2.69 0 01-2-.8 3.06 3.06 0 01-.76-2.18 3 3 0 01.76-2.13 2.66 2.66 0 012-.81 3.26 3.26 0 012.61 1.39l2.53-2.26a5.77 5.77 0 00-2.25-1.77 7.38 7.38 0 00-3.09-.61 7.08 7.08 0 00-3.4.8 5.9 5.9 0 00-2.4 2.21 6.06 6.06 0 00-.85 3.21 6.16 6.16 0 00.85 3.23 6 6 0 002.37 2.21zM21.06 165.08a3.24 3.24 0 012.6 1.39l2.53-2.26a5.81 5.81 0 00-2.19-1.77 7.46 7.46 0 00-3.1-.61 7.11 7.11 0 00-3.4.8 6 6 0 00-2.38 2.21 6.16 6.16 0 00-.85 3.21 6.25 6.25 0 00.85 3.23 6.11 6.11 0 002.38 2.21 7.34 7.34 0 003.4.78 7.46 7.46 0 003.1-.61 5.81 5.81 0 002.24-1.77l-2.53-2.26a3.24 3.24 0 01-2.6 1.39 2.69 2.69 0 01-2-.79 3.06 3.06 0 01-.76-2.18 3 3 0 01.76-2.16 2.67 2.67 0 011.95-.81zM14.84 141.1V153h5.9a5.91 5.91 0 003.77-1.1 3.91 3.91 0 001.38-3.22 3.55 3.55 0 00-1.21-2.92 5.23 5.23 0 00-3.43-1h-2.47v-3.66zm5.62 6.46c.93 0 1.4.4 1.4 1.19a1.45 1.45 0 01-.39 1.07 1.41 1.41 0 01-1 .38h-1.69v-2.64zM20.68 86.91a3.83 3.83 0 01-1.56.27 9.41 9.41 0 01-1.7-.17 10.3 10.3 0 01-1.74-.53l-1.17 2.77a12.11 12.11 0 005 1 9.43 9.43 0 002.95-.43 5 5 0 002.13-1.25 2.85 2.85 0 00.2-3.57 3.26 3.26 0 00-1.47-1.14 3 3 0 001.13-1 2.63 2.63 0 00.41-1.45 2.56 2.56 0 00-.8-1.89A5 5 0 0022 78.2a9.37 9.37 0 00-2.86-.42 10.17 10.17 0 00-4.28.9l1.17 3a7.08 7.08 0 011.58-.57 6.38 6.38 0 011.55-.21 2.65 2.65 0 011.22.24.74.74 0 01.48.68.6.6 0 01-.28.53 1.31 1.31 0 01-.76.18h-2.91v2.89h3.21q1.17 0 1.17.72a.87.87 0 01-.61.77zM25.5 42.83a3.28 3.28 0 00-1.5-1.07 3 3 0 001.12-1 2.76 2.76 0 00.41-1.5 2.58 2.58 0 00-1.23-2.29 6 6 0 00-3.42-.82h-6V48h6.36a6 6 0 003.57-.92A3 3 0 0026 44.55a2.79 2.79 0 00-.5-1.72zm-6.74-3.93h1.7c.66 0 1 .31 1 .91s-.33.86-1 .86h-1.7zM21 45.2h-2.24v-1.87H21c.66 0 1 .3 1 .91a.86.86 0 01-1 .96zM14.54 123.21h3.49V132h3.94v-8.79h3.49v-3.11H14.54v3.11z"/></svg>