<svg id="Layer_1" data-name="Layer 1" xmlns="http://www.w3.org/2000/svg" viewBox="0 0 24 24"><title>Artboard 1</title><path d="M22.39,6A11.9,11.9,0,0,0,18,1.61,11.66,11.66,0,0,0,12,0,11.66,11.66,0,0,0,6,1.61,11.9,11.9,0,0,0,1.61,6,11.66,11.66,0,0,0,0,12a11.66,11.66,0,0,0,1.61,6A11.9,11.9,0,0,0,6,22.39,11.66,11.66,0,0,0,12,24a11.66,11.66,0,0,0,6-1.61A11.9,11.9,0,0,0,22.39,18,11.66,11.66,0,0,0,24,12,11.66,11.66,0,0,0,22.39,6ZM12,1.75a9.89,9.89,0,0,1,6.77,2.56l-.2.28a7,7,0,0,1-.59.63,9.56,9.56,0,0,1-1,.89,13.79,13.79,0,0,1-1.51,1,15,15,0,0,1-2,.95,44,44,0,0,0-3.84-6A9.84,9.84,0,0,1,12,1.75ZM4,5.64A10.09,10.09,0,0,1,7.63,2.73a55.58,55.58,0,0,1,3.81,5.91A37.36,37.36,0,0,1,2,9.89,10.1,10.1,0,0,1,4,5.64ZM2.44,15.7A10.2,10.2,0,0,1,1.75,12a1.83,1.83,0,0,1,0-.33,36.64,36.64,0,0,0,10.51-1.45c.34.64.61,1.22.83,1.73a.8.8,0,0,1-.2.07l-.21.06-.57.2a11.18,11.18,0,0,0-1.56.75c-.64.36-1.32.78-2,1.27A14.71,14.71,0,0,0,6.3,16.24a13.54,13.54,0,0,0-1.92,2.6A10.12,10.12,0,0,1,2.44,15.7ZM12,22.25a10,10,0,0,1-6.53-2.34l.23.17a8.48,8.48,0,0,1,1.61-2.31A12.9,12.9,0,0,1,9.36,16,20.16,20.16,0,0,1,11.5,14.7c.77-.4,1.3-.66,1.58-.77l.67-.26h.06A41.82,41.82,0,0,1,16,21.44,10.4,10.4,0,0,1,12,22.25Zm8.63-4.71a10.45,10.45,0,0,1-2.89,3,45.13,45.13,0,0,0-2-7.33,14.71,14.71,0,0,1,6.39.46A10.43,10.43,0,0,1,20.63,17.54Zm1.46-5.68-.39-.07-.57-.09c-.22,0-.47-.07-.75-.1l-.88-.09c-.31,0-.65,0-1-.06s-.71,0-1.08,0l-1.15,0c-.4,0-.79.06-1.16.11A1.23,1.23,0,0,1,15,11.3a2.51,2.51,0,0,1-.1-.27c-.2-.44-.43-.93-.69-1.48a17.08,17.08,0,0,0,2.06-1,16.07,16.07,0,0,0,1.56-1,12.52,12.52,0,0,0,1.11-.94,7.49,7.49,0,0,0,.68-.7l.3-.38v0a10,10,0,0,1,2.33,6.41Z"/></svg>