<svg id="Layer_1" data-name="Layer 1" xmlns="http://www.w3.org/2000/svg" viewBox="0 0 22.03 15"><title>Artboard 1</title><path d="M8.91,5.39A2.88,2.88,0,0,1,11,4.5a3,3,0,0,1,3,3,3,3,0,0,1-3,3,2.88,2.88,0,0,1-2.11-.89,2.95,2.95,0,0,1,0-4.22ZM7.45,11.06A5,5,0,0,0,11,12.52a4.79,4.79,0,0,0,3.51-1.46A4.85,4.85,0,0,0,16,7.5,4.72,4.72,0,0,0,14.53,4,4.71,4.71,0,0,0,11,2.48,4.88,4.88,0,0,0,7.45,4,4.79,4.79,0,0,0,6,7.5,4.92,4.92,0,0,0,7.45,11.06Zm-3.14-9A11.62,11.62,0,0,1,11,0a11.61,11.61,0,0,1,6.7,2.06A11.53,11.53,0,0,1,22,7.5a11.53,11.53,0,0,1-4.31,5.44A11.61,11.61,0,0,1,11,15,11.75,11.75,0,0,1,0,7.5,11.59,11.59,0,0,1,4.31,2.06Z"/></svg>