<svg id="Layer_1" data-name="Layer 1" xmlns="http://www.w3.org/2000/svg" viewBox="0 0 24 24"><title>Artboard 1</title><path d="M23.9.82a1.42,1.42,0,0,0-.29-.43A1.31,1.31,0,0,0,22.67,0H1.32a1.24,1.24,0,0,0-.5.1A1.42,1.42,0,0,0,.39.39,1.26,1.26,0,0,0,.1.82a1.25,1.25,0,0,0-.1.51V22.67A1.33,1.33,0,0,0,1.32,24h11.5V14.71H9.69V11.08h3.13V8.41c0-3.1,1.89-4.79,4.66-4.79a26.08,26.08,0,0,1,2.79.15V7H18.35c-1.5,0-1.79.71-1.79,1.76v2.31h3.59l-.47,3.62H16.56V24h6.11A1.33,1.33,0,0,0,24,22.67V1.32A1.24,1.24,0,0,0,23.9.82Z"/></svg>