<svg id="Layer_1" data-name="Layer 1" xmlns="http://www.w3.org/2000/svg" viewBox="0 0 19.51 19.97"><title>Artboard 1</title><path d="M7.27,12.47a3.38,3.38,0,0,0,2.48,1A3.52,3.52,0,0,0,13.27,10,3.52,3.52,0,0,0,9.75,6.47,3.52,3.52,0,0,0,6.24,10,3.39,3.39,0,0,0,7.27,12.47ZM17.21,11l2.11,1.64c.22.16.25.37.09.66l-2,3.46a.44.44,0,0,1-.6.19l-2.49-1a8.57,8.57,0,0,1-1.69,1l-.37,2.63a.46.46,0,0,1-.47.42h-4a.46.46,0,0,1-.47-.42l-.38-2.63a7.92,7.92,0,0,1-1.68-1l-2.49,1a.45.45,0,0,1-.61-.19l-2-3.46c-.16-.29-.13-.5.09-.66L2.3,11a7.77,7.77,0,0,1,0-1,7.7,7.7,0,0,1,0-1L.19,7.36A.45.45,0,0,1,.1,6.7l2-3.47a.46.46,0,0,1,.61-.18L5.21,4a8.06,8.06,0,0,1,1.68-1L7.27.42A.46.46,0,0,1,7.74,0h4a.46.46,0,0,1,.47.42l.37,2.63A7.36,7.36,0,0,1,14.3,4l2.49-1a.44.44,0,0,1,.6.18l2,3.47a.45.45,0,0,1-.09.66L17.21,9a8.12,8.12,0,0,1,0,1A8.2,8.2,0,0,1,17.21,11Z"/></svg>