<svg id="Layer_1" data-name="Layer 1" xmlns="http://www.w3.org/2000/svg" viewBox="0 0 24 24"><title>Artboard 1</title><path d="M16.5,24h-9a7.42,7.42,0,0,1-2.87-.57,7.71,7.71,0,0,1-2.44-1.62A7.71,7.71,0,0,1,.57,19.37,7.42,7.42,0,0,1,0,16.5v-9A7.5,7.5,0,0,1,7.5,0h9A7.5,7.5,0,0,1,24,7.5v9a7.42,7.42,0,0,1-.57,2.87,7.4,7.4,0,0,1-4.06,4.06A7.42,7.42,0,0,1,16.5,24ZM12,6a6,6,0,0,0-1.17,11.88,5.9,5.9,0,0,0,3.47-.34A6,6,0,0,0,12,6Zm6.45-1.25a.84.84,0,0,0-.44.13.8.8,0,0,0-.3.36.76.76,0,0,0,0,.47.75.75,0,0,0,.62.62.76.76,0,0,0,.47,0,.8.8,0,0,0,.36-.3.84.84,0,0,0,.13-.44.79.79,0,0,0-.8-.8ZM12,15.75a3.76,3.76,0,1,1,2.65-1.1A3.74,3.74,0,0,1,12,15.75Z"/></svg>