<svg id="Layer_1" data-name="Layer 1" xmlns="http://www.w3.org/2000/svg" viewBox="0 0 24 24"><title>Artboard 1</title><path d="M22.23,0H1.77A2,2,0,0,0,1.1.12,1.93,1.93,0,0,0,.53.49a1.82,1.82,0,0,0-.39.56A1.71,1.71,0,0,0,0,1.72V22.28a1.8,1.8,0,0,0,.53,1.23A1.74,1.74,0,0,0,1.77,24H22.23a1.74,1.74,0,0,0,1.24-.49A1.8,1.8,0,0,0,24,22.28V1.72A1.8,1.8,0,0,0,23.47.49,1.74,1.74,0,0,0,22.23,0ZM7.28,20.09H3.65V9.25H7.28ZM5.46,7.77h0a1.94,1.94,0,0,1-.76-.1A1.88,1.88,0,0,1,4,7.26a2,2,0,0,1-.43-.63,1.63,1.63,0,0,1-.15-.75,1.9,1.9,0,0,1,.16-.75,2,2,0,0,1,.46-.63,1.9,1.9,0,0,1,.66-.38A2,2,0,0,1,5.49,4a1.77,1.77,0,0,1,.76.1,1.84,1.84,0,0,1,1.11,1,1.78,1.78,0,0,1,.16.75,2,2,0,0,1-.17.76,1.87,1.87,0,0,1-.45.63,2,2,0,0,1-.67.39A1.81,1.81,0,0,1,5.46,7.77ZM20.35,20.09H16.72v-5.8c0-1.45-.52-2.45-1.83-2.45a1.94,1.94,0,0,0-1.14.37,2,2,0,0,0-.72.95,2.37,2.37,0,0,0-.12.88v6.05H9.28s.05-9.82,0-10.84h3.63v1.54a3.65,3.65,0,0,1,1.38-1.35A3.55,3.55,0,0,1,16.17,9c2.39,0,4.18,1.55,4.18,4.88v6.21Zm-7.47-9.27,0,0v0Z"/></svg>