<svg id="Layer_1" data-name="Layer 1" xmlns="http://www.w3.org/2000/svg" viewBox="0 0 22.03 13.97"><title>Artboard 1</title><path d="M15,8a12.14,12.14,0,0,1,2.86.37,9.43,9.43,0,0,1,2.86,1.22A2.37,2.37,0,0,1,22,11.48V14H16V11.48a4.12,4.12,0,0,0-2-3.46A5.78,5.78,0,0,1,15,8ZM4.17,8.34A12.2,12.2,0,0,1,7,8a12.14,12.14,0,0,1,2.86.37A8.75,8.75,0,0,1,12.7,9.56,2.36,2.36,0,0,1,14,11.48V14H0V11.48A2.37,2.37,0,0,1,1.31,9.56,9.43,9.43,0,0,1,4.17,8.34ZM9.09,5.11A2.74,2.74,0,0,1,7,6a2.91,2.91,0,0,1-2.11-.89A2.9,2.9,0,0,1,4,3,2.9,2.9,0,0,1,4.92.89,2.91,2.91,0,0,1,7,0,2.74,2.74,0,0,1,9.09.89,2.86,2.86,0,0,1,10,3,2.86,2.86,0,0,1,9.09,5.11Zm8,0a2.95,2.95,0,0,1-4.22,0A2.9,2.9,0,0,1,12,3,2.9,2.9,0,0,1,12.89.89a2.95,2.95,0,0,1,4.22,0A2.9,2.9,0,0,1,18,3,2.9,2.9,0,0,1,17.11,5.11Z"/></svg>