<svg id="Layer_1" data-name="Layer 1" xmlns="http://www.w3.org/2000/svg" viewBox="0 0 24.18 24.18"><title>Artboard 1</title><path d="M7,12.29A5.29,5.29,0,1,1,12.29,7,5.3,5.3,0,0,1,7,12.29ZM7,3.71A3.29,3.29,0,1,0,10.29,7,3.3,3.3,0,0,0,7,3.71Z"/><path d="M6.88,24.18A7.55,7.55,0,0,1,1.54,22L.29,20.74a1,1,0,0,1,0-1.41,1,1,0,0,1,1.42,0L3,20.57a5.55,5.55,0,0,0,6.9.74A37.74,37.74,0,0,0,21.31,9.85,5.55,5.55,0,0,0,20.57,3L19.33,1.71a1,1,0,0,1,0-1.42,1,1,0,0,1,1.41,0L22,1.54a7.57,7.57,0,0,1,1,9.39A40.16,40.16,0,0,1,10.93,23,7.53,7.53,0,0,1,6.88,24.18Z"/></svg>