<svg id="Layer_1" data-name="Layer 1" xmlns="http://www.w3.org/2000/svg" viewBox="0 0 17.48 17.48"><title>Artboard 1</title><path d="M3.33,9.7A4.32,4.32,0,0,0,6.52,11,4.3,4.3,0,0,0,9.7,9.7,4.3,4.3,0,0,0,11,6.52,4.32,4.32,0,0,0,9.7,3.33,4.29,4.29,0,0,0,6.52,2,4.32,4.32,0,0,0,3.33,3.33,4.32,4.32,0,0,0,2,6.52,4.29,4.29,0,0,0,3.33,9.7ZM12.52,11l5,5L16,17.48l-5-5v-.8l-.29-.28A6.2,6.2,0,0,1,6.52,13a6.38,6.38,0,0,1-4.64-1.87A6.21,6.21,0,0,1,0,6.52a6.22,6.22,0,0,1,1.88-4.6A6.31,6.31,0,0,1,6.52,0a6.17,6.17,0,0,1,4.59,1.92A6.24,6.24,0,0,1,13,6.52a6.2,6.2,0,0,1-1.54,4.21l.28.29Z"/></svg>