<svg id="Layer_1" data-name="Layer 1" xmlns="http://www.w3.org/2000/svg" viewBox="0 0 18 19.92"><title>Artboard 1</title><path d="M15,14.06a2.74,2.74,0,0,1,2.06.89,2.79,2.79,0,0,1,.85,2A2.91,2.91,0,0,1,17,19.08a2.78,2.78,0,0,1-2,.84,2.91,2.91,0,0,1-2.06-.84A3,3,0,0,1,12.09,17a3.23,3.23,0,0,1,.05-.66L5.06,12.19A3,3,0,0,1,3,13a2.86,2.86,0,0,1-2.11-.89A2.88,2.88,0,0,1,0,10,2.91,2.91,0,0,1,.89,7.87,2.9,2.9,0,0,1,3,7a3,3,0,0,1,2.06.8l7-4.08A4,4,0,0,1,12,3,2.9,2.9,0,0,1,12.89.89a2.95,2.95,0,0,1,4.22,0A2.9,2.9,0,0,1,18,3a2.9,2.9,0,0,1-.89,2.11A2.9,2.9,0,0,1,15,6a3,3,0,0,1-2.06-.84l-7,4.12A4.12,4.12,0,0,1,6,10a4.21,4.21,0,0,1-.09.71L13,14.81A2.87,2.87,0,0,1,15,14.06Z"/></svg>