<svg id="Layer_1" data-name="Layer 1" xmlns="http://www.w3.org/2000/svg" viewBox="0 0 93.6 44.36"><title>Artboard 1</title><path d="M59.2,6.8A6.7,6.7,0,0,1,61.1,2a6.79,6.79,0,0,1,5-2,6.36,6.36,0,0,1,4.8,2,6.55,6.55,0,0,1,2,4.8A6.37,6.37,0,0,1,71,11.5a6.62,6.62,0,0,1-4.9,1.9,6.79,6.79,0,0,1-5-2A6.26,6.26,0,0,1,59.2,6.8Zm-26.7.1a5.92,5.92,0,0,1-2,4.6,6.5,6.5,0,0,1-4.8,1.9,10.36,10.36,0,0,1-2.9-.4,40.55,40.55,0,0,1-4.3-1.3L4.6,7V.7L19.5,4.4a6.66,6.66,0,0,1,2.3-3.1A7,7,0,0,1,25.7.2a6.62,6.62,0,0,1,4.9,1.9A6.5,6.5,0,0,1,32.5,6.9ZM0,23.26a84.47,84.47,0,0,0,22,8.8A101.36,101.36,0,0,0,46.8,35a101.36,101.36,0,0,0,24.8-2.9,84.47,84.47,0,0,0,22-8.8v9.1a71.76,71.76,0,0,1-21,8.9,103.19,103.19,0,0,1-25.8,3.1,102.78,102.78,0,0,1-25.7-3.1A73.21,73.21,0,0,1,0,32.36Z"/></svg>