<svg id="Layer_1" data-name="Layer 1" xmlns="http://www.w3.org/2000/svg" viewBox="0 0 19.97 19.97"><title>Artboard 1</title><path d="M17.06,2.91A9.6,9.6,0,0,1,20,10,9.69,9.69,0,0,1,17,17.06,9.6,9.6,0,0,1,10,20a9.69,9.69,0,0,1-7.07-2.91A9.73,9.73,0,0,1,0,10,9.57,9.57,0,0,1,2.91,3,9.62,9.62,0,0,1,10,0h1V8.25A1.83,1.83,0,0,1,12,10a2.09,2.09,0,0,1-2,2,1.9,1.9,0,0,1-1.4-.61A1.92,1.92,0,0,1,8,10,1.83,1.83,0,0,1,9,8.25V6.14A4.22,4.22,0,0,0,6.84,7.55,3.72,3.72,0,0,0,6,10a4,4,0,0,0,4,4,4,4,0,0,0,4-4A4.06,4.06,0,0,0,12.8,7.17l1.4-1.4A5.73,5.73,0,0,1,16,10a5.82,5.82,0,0,1-1.78,4.27A5.71,5.71,0,0,1,10,16a5.93,5.93,0,0,1-6-6A5.71,5.71,0,0,1,5.39,6.14,6,6,0,0,1,9,4.08v-2A8,8,0,0,0,4,4.69,7.68,7.68,0,0,0,2,10a8,8,0,0,0,8,8,7.68,7.68,0,0,0,5.63-2.34A7.79,7.79,0,0,0,18,10a7.74,7.74,0,0,0-2.34-5.67Z"/></svg>