<svg id="Layer_1" data-name="Layer 1" xmlns="http://www.w3.org/2000/svg" viewBox="0 0 32.81 28.57"><title>Artboard 1</title><path d="M26.35,28.57a.87.87,0,0,1-.52-.17l-7.6-5.52a1.22,1.22,0,0,0-.78-.24,1.34,1.34,0,0,0-.76.28l-4.21,3.44a.89.89,0,0,1-.56.2.9.9,0,0,1-.85-.63L8.14,16.52.58,13.7a.92.92,0,0,1-.42-.33.9.9,0,0,1-.16-.5.86.86,0,0,1,.16-.51A.89.89,0,0,1,.57,12l31-12a.87.87,0,0,1,.55,0,.91.91,0,0,1,.46.3.78.78,0,0,1,.18.35.86.86,0,0,1,0,.39L27.22,27.86a.88.88,0,0,1-.31.51A.89.89,0,0,1,26.35,28.57ZM25.51,5.88a.23.23,0,0,0-.14,0L10.6,15A1.46,1.46,0,0,0,10,16.69l1.6,5.61a.36.36,0,0,0,.13.21.39.39,0,0,0,.23.07.41.41,0,0,0,.26-.09.37.37,0,0,0,.12-.24l.42-3.08a2.47,2.47,0,0,1,.78-1.51L25.68,6.33a.25.25,0,0,0,.07-.28.23.23,0,0,0-.1-.12A.24.24,0,0,0,25.51,5.88Z"/></svg>