<svg id="Layer_1" data-name="Layer 1" xmlns="http://www.w3.org/2000/svg" viewBox="0 0 27.56 15.61"><title>Artboard 1</title><path d="M26.42,12.63a36.33,36.33,0,0,0-2.7-2.71c-.82-.81-.88-1.27-.21-2.2s1.5-2,2.22-3a10.65,10.65,0,0,0,1.74-3c.23-.71,0-1-.71-1.16l-.39,0H22a.94.94,0,0,0-.63.16,1,1,0,0,0-.39.54c-.26.64-.52,1.29-.83,1.91A15.88,15.88,0,0,1,17.6,7.07c-.24.25-.5.57-.9.44s-.65-1-.64-1.29v-5c-.1-.72-.25-1-1-1.18H10.55a1.43,1.43,0,0,0-.7.15,1.6,1.6,0,0,0-.54.46c-.18.22-.24.36.15.44a1.48,1.48,0,0,1,.88.46,1.46,1.46,0,0,1,.4.92,15.2,15.2,0,0,1,.07,3.63,3.34,3.34,0,0,1-.23,1,.54.54,0,0,1-.15.29.57.57,0,0,1-.28.17.61.61,0,0,1-.33,0,.68.68,0,0,1-.28-.17,4.12,4.12,0,0,1-1-1.11A24.18,24.18,0,0,1,5.87,1.36,1.14,1.14,0,0,0,5.45.77,1.23,1.23,0,0,0,4.77.54q-2,0-3.93,0c-.79,0-1,.4-.7,1.11a48.75,48.75,0,0,0,5.09,9.08A12.71,12.71,0,0,0,9.1,14.34a10.17,10.17,0,0,0,5.74,1.24c.95,0,1.24-.29,1.28-1.24a4.16,4.16,0,0,1,.42-1.87.86.86,0,0,1,.23-.33.78.78,0,0,1,.35-.18.9.9,0,0,1,.4,0,.87.87,0,0,1,.36.18,4,4,0,0,1,.72.65c.53.58,1,1.18,1.6,1.75a3.15,3.15,0,0,0,1.16.82,3,3,0,0,0,1.4.22h4c.65,0,1-.83.62-1.56A8.25,8.25,0,0,0,26.42,12.63Z"/></svg>