<svg id="Layer_1" data-name="Layer 1" xmlns="http://www.w3.org/2000/svg" xmlns:xlink="http://www.w3.org/1999/xlink" viewBox="0 0 26.43 26.54"><defs><linearGradient id="linear-gradient" x1="13.21" y1="3.53" x2="13.21" y2="29.15" gradientTransform="matrix(1, 0, 0, -1, 0, 29.61)" gradientUnits="userSpaceOnUse"><stop offset="0" stop-color="#20b038"/><stop offset="1" stop-color="#60d66a"/></linearGradient><linearGradient id="linear-gradient-2" x1="13.21" y1="3.07" x2="13.21" y2="29.61" gradientTransform="matrix(1, 0, 0, -1, 0, 29.61)" gradientUnits="userSpaceOnUse"><stop offset="0" stop-color="#f9f9f9"/><stop offset="1" stop-color="#fff"/></linearGradient></defs><title>Artboard 1</title><rect x="-2.39" y="-2.06" width="31.29" height="31.35" fill="none" opacity="0.2" style="isolation:isolate"/><path d="M0,26.54l1.87-6.81a13.15,13.15,0,1,1,5.11,5Zm7.3-4.21.4.24a10.89,10.89,0,0,0,5.56,1.52h0A10.93,10.93,0,1,0,4,19l.26.41-1.1,4Z" fill="#fff" opacity="0.1" style="isolation:isolate"/><path d="M.46,26.08l1.8-6.58a12.71,12.71,0,1,1,11,6.36h0a12.76,12.76,0,0,1-6.07-1.54Z" fill="url(#linear-gradient)"/><path d="M0,26.54l1.87-6.81a13.15,13.15,0,1,1,5.11,5Zm7.3-4.21.4.24a10.89,10.89,0,0,0,5.56,1.52h0A10.93,10.93,0,1,0,4,19l.26.41-1.1,4Z" fill="url(#linear-gradient-2)"/><rect x="5.81" y="6.4" width="14.95" height="14" fill="none" opacity="0.6" style="isolation:isolate"/><path d="M10,7.65c-.24-.54-.5-.56-.74-.56H8.61a1.16,1.16,0,0,0-.48.11,1.14,1.14,0,0,0-.39.3,3.62,3.62,0,0,0-.87,1.25,3.8,3.8,0,0,0-.29,1.49,6.42,6.42,0,0,0,1.35,3.4c.16.22,2.27,3.64,5.61,5,2.78,1.1,3.35.88,3.95.82a3.31,3.31,0,0,0,2.22-1.56,2.78,2.78,0,0,0,.19-1.56c-.08-.14-.3-.22-.63-.38S17.32,15,17,14.84s-.52-.17-.74.16-.85,1.07-1,1.29-.38.25-.71.08a8.69,8.69,0,0,1-2.64-1.63,9.76,9.76,0,0,1-1.83-2.27c-.2-.33,0-.51.14-.67s.33-.39.49-.58a2.06,2.06,0,0,0,.33-.55.49.49,0,0,0,.06-.29A.54.54,0,0,0,11,10.1C10.91,9.93,10.27,8.3,10,7.65Z" fill="#fff" fill-rule="evenodd"/></svg>